{
	"patcher" : 	{
		"fileversion" : 1,
		"rect" : [ 697.0, 242.0, 510.0, 357.0 ],
		"bglocked" : 0,
		"defrect" : [ 697.0, 242.0, 510.0, 357.0 ],
		"openrect" : [ 0.0, 0.0, 0.0, 0.0 ],
		"openinpresentation" : 0,
		"default_fontsize" : 12.0,
		"default_fontface" : 0,
		"default_fontname" : "Arial",
		"gridonopen" : 0,
		"gridsize" : [ 15.0, 15.0 ],
		"gridsnaponopen" : 0,
		"toolbarvisible" : 1,
		"boxanimatetime" : 200,
		"imprint" : 0,
		"enablehscroll" : 1,
		"enablevscroll" : 1,
		"devicewidth" : 0.0,
		"boxes" : [ 			{
				"box" : 				{
					"maxclass" : "comment",
					"text" : "Master",
					"patching_rect" : [ 344.0, 317.0, 49.0, 20.0 ],
					"fontsize" : 12.0,
					"numinlets" : 1,
					"id" : "obj-24",
					"fontname" : "Arial",
					"numoutlets" : 0,
					"presentation_rect" : [ 344.0, 317.0, 0.0, 0.0 ]
				}

			}
, 			{
				"box" : 				{
					"maxclass" : "comment",
					"text" : "8",
					"patching_rect" : [ 307.0, 317.0, 18.0, 20.0 ],
					"fontsize" : 12.0,
					"numinlets" : 1,
					"id" : "obj-23",
					"fontname" : "Arial",
					"numoutlets" : 0,
					"presentation_rect" : [ 307.0, 317.0, 0.0, 0.0 ]
				}

			}
, 			{
				"box" : 				{
					"maxclass" : "comment",
					"text" : "7",
					"patching_rect" : [ 269.0, 317.0, 18.0, 20.0 ],
					"fontsize" : 12.0,
					"numinlets" : 1,
					"id" : "obj-22",
					"fontname" : "Arial",
					"numoutlets" : 0,
					"presentation_rect" : [ 268.0, 317.0, 0.0, 0.0 ]
				}

			}
, 			{
				"box" : 				{
					"maxclass" : "comment",
					"text" : "6",
					"patching_rect" : [ 231.0, 317.0, 18.0, 20.0 ],
					"fontsize" : 12.0,
					"numinlets" : 1,
					"id" : "obj-21",
					"fontname" : "Arial",
					"numoutlets" : 0,
					"presentation_rect" : [ 234.0, 317.0, 0.0, 0.0 ]
				}

			}
, 			{
				"box" : 				{
					"maxclass" : "comment",
					"text" : "5",
					"patching_rect" : [ 191.0, 317.0, 18.0, 20.0 ],
					"fontsize" : 12.0,
					"numinlets" : 1,
					"id" : "obj-20",
					"fontname" : "Arial",
					"numoutlets" : 0,
					"presentation_rect" : [ 191.0, 317.0, 0.0, 0.0 ]
				}

			}
, 			{
				"box" : 				{
					"maxclass" : "comment",
					"text" : "4",
					"patching_rect" : [ 155.0, 317.0, 18.0, 20.0 ],
					"fontsize" : 12.0,
					"numinlets" : 1,
					"id" : "obj-19",
					"fontname" : "Arial",
					"numoutlets" : 0,
					"presentation_rect" : [ 155.0, 317.0, 0.0, 0.0 ]
				}

			}
, 			{
				"box" : 				{
					"maxclass" : "comment",
					"text" : "3",
					"patching_rect" : [ 116.0, 317.0, 18.0, 20.0 ],
					"fontsize" : 12.0,
					"numinlets" : 1,
					"id" : "obj-18",
					"fontname" : "Arial",
					"numoutlets" : 0,
					"presentation_rect" : [ 116.0, 317.0, 0.0, 0.0 ]
				}

			}
, 			{
				"box" : 				{
					"maxclass" : "comment",
					"text" : "2",
					"patching_rect" : [ 75.0, 317.0, 18.0, 20.0 ],
					"fontsize" : 12.0,
					"numinlets" : 1,
					"id" : "obj-7",
					"fontname" : "Arial",
					"numoutlets" : 0,
					"presentation_rect" : [ 75.0, 317.0, 0.0, 0.0 ]
				}

			}
, 			{
				"box" : 				{
					"maxclass" : "comment",
					"text" : "1",
					"patching_rect" : [ 37.0, 317.0, 18.0, 20.0 ],
					"fontsize" : 12.0,
					"numinlets" : 1,
					"id" : "obj-4",
					"fontname" : "Arial",
					"numoutlets" : 0
				}

			}
, 			{
				"box" : 				{
					"maxclass" : "slider",
					"outlettype" : [ "" ],
					"patching_rect" : [ 345.0, 165.0, 20.0, 140.0 ],
					"size" : 1.0,
					"numinlets" : 1,
					"id" : "obj-15",
					"numoutlets" : 1,
					"floatoutput" : 1
				}

			}
, 			{
				"box" : 				{
					"maxclass" : "slider",
					"outlettype" : [ "" ],
					"patching_rect" : [ 306.0, 165.0, 20.0, 140.0 ],
					"size" : 1.0,
					"numinlets" : 1,
					"id" : "obj-16",
					"numoutlets" : 1,
					"floatoutput" : 1
				}

			}
, 			{
				"box" : 				{
					"maxclass" : "slider",
					"outlettype" : [ "" ],
					"patching_rect" : [ 268.0, 165.0, 20.0, 140.0 ],
					"size" : 1.0,
					"numinlets" : 1,
					"id" : "obj-17",
					"numoutlets" : 1,
					"floatoutput" : 1
				}

			}
, 			{
				"box" : 				{
					"maxclass" : "slider",
					"outlettype" : [ "" ],
					"patching_rect" : [ 229.0, 165.0, 20.0, 140.0 ],
					"size" : 1.0,
					"numinlets" : 1,
					"id" : "obj-14",
					"numoutlets" : 1,
					"floatoutput" : 1
				}

			}
, 			{
				"box" : 				{
					"maxclass" : "slider",
					"outlettype" : [ "" ],
					"patching_rect" : [ 190.0, 165.0, 20.0, 140.0 ],
					"size" : 1.0,
					"numinlets" : 1,
					"id" : "obj-1",
					"numoutlets" : 1,
					"floatoutput" : 1
				}

			}
, 			{
				"box" : 				{
					"maxclass" : "slider",
					"outlettype" : [ "" ],
					"patching_rect" : [ 151.0, 165.0, 20.0, 140.0 ],
					"size" : 1.0,
					"numinlets" : 1,
					"id" : "obj-12",
					"numoutlets" : 1,
					"floatoutput" : 1
				}

			}
, 			{
				"box" : 				{
					"maxclass" : "slider",
					"outlettype" : [ "" ],
					"patching_rect" : [ 113.0, 165.0, 20.0, 140.0 ],
					"size" : 1.0,
					"numinlets" : 1,
					"id" : "obj-11",
					"numoutlets" : 1,
					"floatoutput" : 1
				}

			}
, 			{
				"box" : 				{
					"maxclass" : "slider",
					"outlettype" : [ "" ],
					"patching_rect" : [ 74.0, 165.0, 20.0, 140.0 ],
					"size" : 1.0,
					"numinlets" : 1,
					"id" : "obj-10",
					"numoutlets" : 1,
					"floatoutput" : 1
				}

			}
, 			{
				"box" : 				{
					"maxclass" : "slider",
					"outlettype" : [ "" ],
					"patching_rect" : [ 35.0, 165.0, 20.0, 140.0 ],
					"size" : 1.0,
					"numinlets" : 1,
					"id" : "obj-9",
					"numoutlets" : 1,
					"floatoutput" : 1
				}

			}
, 			{
				"box" : 				{
					"maxclass" : "newobj",
					"text" : "GL_APCLevels",
					"outlettype" : [ "float", "float", "float", "float", "float", "float", "float", "float", "float" ],
					"patching_rect" : [ 35.0, 126.0, 329.0, 20.0 ],
					"fontsize" : 12.0,
					"numinlets" : 0,
					"id" : "obj-8",
					"fontname" : "Arial",
					"numoutlets" : 9
				}

			}
, 			{
				"box" : 				{
					"maxclass" : "comment",
					"varname" : "autohelp_top_title",
					"text" : "GL_APCLevels",
					"frgb" : [ 0.93, 0.93, 0.97, 1.0 ],
					"fontface" : 3,
					"patching_rect" : [ 10.0, 8.0, 485.0, 30.0 ],
					"fontsize" : 20.871338,
					"numinlets" : 1,
					"id" : "obj-2",
					"fontname" : "Arial",
					"numoutlets" : 0,
					"textcolor" : [ 0.93, 0.93, 0.97, 1.0 ]
				}

			}
, 			{
				"box" : 				{
					"maxclass" : "comment",
					"varname" : "autohelp_top_digest",
					"text" : "Receive data from levels sliders on APC40",
					"frgb" : [ 0.93, 0.93, 0.97, 1.0 ],
					"patching_rect" : [ 10.0, 36.0, 485.0, 21.0 ],
					"fontsize" : 12.754705,
					"numinlets" : 1,
					"id" : "obj-5",
					"fontname" : "Arial",
					"numoutlets" : 0,
					"textcolor" : [ 0.93, 0.93, 0.97, 1.0 ]
				}

			}
, 			{
				"box" : 				{
					"maxclass" : "comment",
					"varname" : "autohelp_top_description",
					"text" : "This patch receives data from the levels sliders in the lower left panel of the APC40.\n\nThe range of all levels is a float from 0.-1.\nThe levels sliders go from 1-8; on the far right is the master level.",
					"linecount" : 4,
					"patching_rect" : [ 10.0, 57.0, 483.0, 60.0 ],
					"fontsize" : 11.595187,
					"numinlets" : 1,
					"id" : "obj-6",
					"fontname" : "Arial",
					"numoutlets" : 0
				}

			}
, 			{
				"box" : 				{
					"maxclass" : "panel",
					"varname" : "autohelp_top_panel",
					"grad1" : [ 0.27, 0.35, 0.47, 1.0 ],
					"mode" : 1,
					"patching_rect" : [ 5.0, 5.0, 495.0, 52.0 ],
					"grad2" : [ 0.85, 0.85, 0.85, 1.0 ],
					"background" : 1,
					"numinlets" : 1,
					"id" : "obj-13",
					"numoutlets" : 0
				}

			}
 ],
		"lines" : [ 			{
				"patchline" : 				{
					"source" : [ "obj-8", 0 ],
					"destination" : [ "obj-9", 0 ],
					"hidden" : 0,
					"midpoints" : [  ]
				}

			}
, 			{
				"patchline" : 				{
					"source" : [ "obj-8", 1 ],
					"destination" : [ "obj-10", 0 ],
					"hidden" : 0,
					"midpoints" : [  ]
				}

			}
, 			{
				"patchline" : 				{
					"source" : [ "obj-8", 2 ],
					"destination" : [ "obj-11", 0 ],
					"hidden" : 0,
					"midpoints" : [  ]
				}

			}
, 			{
				"patchline" : 				{
					"source" : [ "obj-8", 3 ],
					"destination" : [ "obj-12", 0 ],
					"hidden" : 0,
					"midpoints" : [  ]
				}

			}
, 			{
				"patchline" : 				{
					"source" : [ "obj-8", 4 ],
					"destination" : [ "obj-1", 0 ],
					"hidden" : 0,
					"midpoints" : [  ]
				}

			}
, 			{
				"patchline" : 				{
					"source" : [ "obj-8", 5 ],
					"destination" : [ "obj-14", 0 ],
					"hidden" : 0,
					"midpoints" : [  ]
				}

			}
, 			{
				"patchline" : 				{
					"source" : [ "obj-8", 6 ],
					"destination" : [ "obj-17", 0 ],
					"hidden" : 0,
					"midpoints" : [  ]
				}

			}
, 			{
				"patchline" : 				{
					"source" : [ "obj-8", 7 ],
					"destination" : [ "obj-16", 0 ],
					"hidden" : 0,
					"midpoints" : [  ]
				}

			}
, 			{
				"patchline" : 				{
					"source" : [ "obj-8", 8 ],
					"destination" : [ "obj-15", 0 ],
					"hidden" : 0,
					"midpoints" : [  ]
				}

			}
 ]
	}

}
