{
	"patcher" : 	{
		"fileversion" : 1,
		"rect" : [ 668.0, 145.0, 529.0, 455.0 ],
		"bglocked" : 0,
		"defrect" : [ 668.0, 145.0, 529.0, 455.0 ],
		"openrect" : [ 0.0, 0.0, 0.0, 0.0 ],
		"openinpresentation" : 0,
		"default_fontsize" : 12.0,
		"default_fontface" : 0,
		"default_fontname" : "Arial",
		"gridonopen" : 0,
		"gridsize" : [ 15.0, 15.0 ],
		"gridsnaponopen" : 0,
		"toolbarvisible" : 1,
		"boxanimatetime" : 200,
		"imprint" : 0,
		"enablehscroll" : 1,
		"enablevscroll" : 1,
		"devicewidth" : 0.0,
		"boxes" : [ 			{
				"box" : 				{
					"maxclass" : "comment",
					"text" : "NOTE: The loadmess may not work in this help patch; paste into another patcher and everything should work.",
					"linecount" : 3,
					"fontsize" : 12.0,
					"patching_rect" : [ 139.0, 347.0, 256.0, 48.0 ],
					"numinlets" : 1,
					"id" : "obj-11",
					"fontname" : "Arial",
					"numoutlets" : 0
				}

			}
, 			{
				"box" : 				{
					"maxclass" : "newobj",
					"text" : "loadmess 1",
					"outlettype" : [ "" ],
					"fontsize" : 12.0,
					"patching_rect" : [ 77.0, 173.0, 72.0, 20.0 ],
					"numinlets" : 1,
					"id" : "obj-4",
					"fontname" : "Arial",
					"numoutlets" : 1
				}

			}
, 			{
				"box" : 				{
					"maxclass" : "newobj",
					"text" : "loadmess 2",
					"outlettype" : [ "" ],
					"fontsize" : 12.0,
					"patching_rect" : [ 77.0, 256.0, 72.0, 20.0 ],
					"numinlets" : 1,
					"id" : "obj-48",
					"fontname" : "Arial",
					"numoutlets" : 1
				}

			}
, 			{
				"box" : 				{
					"maxclass" : "button",
					"outlettype" : [ "bang" ],
					"patching_rect" : [ 224.0, 302.0, 20.0, 20.0 ],
					"numinlets" : 1,
					"id" : "obj-49",
					"numoutlets" : 1
				}

			}
, 			{
				"box" : 				{
					"maxclass" : "button",
					"outlettype" : [ "bang" ],
					"patching_rect" : [ 203.0, 302.0, 20.0, 20.0 ],
					"numinlets" : 1,
					"id" : "obj-50",
					"numoutlets" : 1
				}

			}
, 			{
				"box" : 				{
					"maxclass" : "button",
					"outlettype" : [ "bang" ],
					"patching_rect" : [ 182.0, 302.0, 20.0, 20.0 ],
					"numinlets" : 1,
					"id" : "obj-51",
					"numoutlets" : 1
				}

			}
, 			{
				"box" : 				{
					"maxclass" : "button",
					"outlettype" : [ "bang" ],
					"patching_rect" : [ 161.0, 302.0, 20.0, 20.0 ],
					"numinlets" : 1,
					"id" : "obj-52",
					"numoutlets" : 1
				}

			}
, 			{
				"box" : 				{
					"maxclass" : "button",
					"outlettype" : [ "bang" ],
					"patching_rect" : [ 140.0, 302.0, 20.0, 20.0 ],
					"numinlets" : 1,
					"id" : "obj-53",
					"numoutlets" : 1
				}

			}
, 			{
				"box" : 				{
					"maxclass" : "button",
					"outlettype" : [ "bang" ],
					"patching_rect" : [ 119.0, 302.0, 20.0, 20.0 ],
					"numinlets" : 1,
					"id" : "obj-54",
					"numoutlets" : 1
				}

			}
, 			{
				"box" : 				{
					"maxclass" : "button",
					"outlettype" : [ "bang" ],
					"patching_rect" : [ 98.0, 302.0, 20.0, 20.0 ],
					"numinlets" : 1,
					"id" : "obj-55",
					"numoutlets" : 1
				}

			}
, 			{
				"box" : 				{
					"maxclass" : "button",
					"outlettype" : [ "bang" ],
					"patching_rect" : [ 77.0, 302.0, 20.0, 20.0 ],
					"numinlets" : 1,
					"id" : "obj-56",
					"numoutlets" : 1
				}

			}
, 			{
				"box" : 				{
					"maxclass" : "newobj",
					"text" : "GL_APCClipLaunchRow",
					"outlettype" : [ "bang", "bang", "bang", "bang", "bang", "bang", "bang", "bang" ],
					"fontsize" : 12.0,
					"patching_rect" : [ 77.0, 278.0, 166.0, 20.0 ],
					"numinlets" : 1,
					"id" : "obj-57",
					"fontname" : "Arial",
					"numoutlets" : 8
				}

			}
, 			{
				"box" : 				{
					"maxclass" : "button",
					"outlettype" : [ "bang" ],
					"patching_rect" : [ 224.0, 220.0, 20.0, 20.0 ],
					"numinlets" : 1,
					"id" : "obj-17",
					"numoutlets" : 1
				}

			}
, 			{
				"box" : 				{
					"maxclass" : "button",
					"outlettype" : [ "bang" ],
					"patching_rect" : [ 203.0, 220.0, 20.0, 20.0 ],
					"numinlets" : 1,
					"id" : "obj-18",
					"numoutlets" : 1
				}

			}
, 			{
				"box" : 				{
					"maxclass" : "button",
					"outlettype" : [ "bang" ],
					"patching_rect" : [ 182.0, 220.0, 20.0, 20.0 ],
					"numinlets" : 1,
					"id" : "obj-19",
					"numoutlets" : 1
				}

			}
, 			{
				"box" : 				{
					"maxclass" : "button",
					"outlettype" : [ "bang" ],
					"patching_rect" : [ 161.0, 220.0, 20.0, 20.0 ],
					"numinlets" : 1,
					"id" : "obj-20",
					"numoutlets" : 1
				}

			}
, 			{
				"box" : 				{
					"maxclass" : "button",
					"outlettype" : [ "bang" ],
					"patching_rect" : [ 140.0, 220.0, 20.0, 20.0 ],
					"numinlets" : 1,
					"id" : "obj-21",
					"numoutlets" : 1
				}

			}
, 			{
				"box" : 				{
					"maxclass" : "button",
					"outlettype" : [ "bang" ],
					"patching_rect" : [ 119.0, 220.0, 20.0, 20.0 ],
					"numinlets" : 1,
					"id" : "obj-22",
					"numoutlets" : 1
				}

			}
, 			{
				"box" : 				{
					"maxclass" : "button",
					"outlettype" : [ "bang" ],
					"patching_rect" : [ 98.0, 220.0, 20.0, 20.0 ],
					"numinlets" : 1,
					"id" : "obj-23",
					"numoutlets" : 1
				}

			}
, 			{
				"box" : 				{
					"maxclass" : "button",
					"outlettype" : [ "bang" ],
					"patching_rect" : [ 77.0, 220.0, 20.0, 20.0 ],
					"numinlets" : 1,
					"id" : "obj-24",
					"numoutlets" : 1
				}

			}
, 			{
				"box" : 				{
					"maxclass" : "newobj",
					"text" : "GL_APCClipLaunchRow",
					"outlettype" : [ "bang", "bang", "bang", "bang", "bang", "bang", "bang", "bang" ],
					"fontsize" : 12.0,
					"patching_rect" : [ 77.0, 196.0, 166.0, 20.0 ],
					"numinlets" : 1,
					"id" : "obj-25",
					"fontname" : "Arial",
					"numoutlets" : 8
				}

			}
, 			{
				"box" : 				{
					"maxclass" : "comment",
					"varname" : "autohelp_top_title",
					"text" : "GL_APCClipLaunchRow",
					"textcolor" : [ 0.93, 0.93, 0.97, 1.0 ],
					"frgb" : [ 0.93, 0.93, 0.97, 1.0 ],
					"fontface" : 3,
					"fontsize" : 20.871338,
					"patching_rect" : [ 10.0, 8.0, 485.0, 30.0 ],
					"numinlets" : 1,
					"id" : "obj-2",
					"fontname" : "Arial",
					"numoutlets" : 0
				}

			}
, 			{
				"box" : 				{
					"maxclass" : "comment",
					"varname" : "autohelp_top_digest",
					"text" : "Receive data from the \"Clip Launch\" panel of the APC40",
					"textcolor" : [ 0.93, 0.93, 0.97, 1.0 ],
					"frgb" : [ 0.93, 0.93, 0.97, 1.0 ],
					"fontsize" : 12.754705,
					"patching_rect" : [ 10.0, 36.0, 485.0, 21.0 ],
					"numinlets" : 1,
					"id" : "obj-5",
					"fontname" : "Arial",
					"numoutlets" : 0
				}

			}
, 			{
				"box" : 				{
					"maxclass" : "comment",
					"varname" : "autohelp_top_description",
					"text" : "Receive bangs from the \"Clip Launch\" panel at the top left of the APC40. Each GL_APCClipLaunchRow instance is bound to one row of the APC40; pass in the row number to calibrate the object.\n\nThe examples below are calibrated to receive from the first two rows of the panel.",
					"linecount" : 5,
					"fontsize" : 11.595187,
					"patching_rect" : [ 10.0, 57.0, 488.0, 73.0 ],
					"numinlets" : 1,
					"id" : "obj-6",
					"fontname" : "Arial",
					"numoutlets" : 0
				}

			}
, 			{
				"box" : 				{
					"maxclass" : "panel",
					"varname" : "autohelp_top_panel",
					"mode" : 1,
					"grad2" : [ 0.85, 0.85, 0.85, 1.0 ],
					"background" : 1,
					"patching_rect" : [ 5.0, 5.0, 495.0, 52.0 ],
					"numinlets" : 1,
					"id" : "obj-13",
					"grad1" : [ 0.27, 0.35, 0.47, 1.0 ],
					"numoutlets" : 0
				}

			}
 ],
		"lines" : [ 			{
				"patchline" : 				{
					"source" : [ "obj-4", 0 ],
					"destination" : [ "obj-25", 0 ],
					"hidden" : 0,
					"midpoints" : [  ]
				}

			}
, 			{
				"patchline" : 				{
					"source" : [ "obj-48", 0 ],
					"destination" : [ "obj-57", 0 ],
					"hidden" : 0,
					"midpoints" : [  ]
				}

			}
, 			{
				"patchline" : 				{
					"source" : [ "obj-25", 4 ],
					"destination" : [ "obj-20", 0 ],
					"hidden" : 0,
					"midpoints" : [  ]
				}

			}
, 			{
				"patchline" : 				{
					"source" : [ "obj-25", 3 ],
					"destination" : [ "obj-21", 0 ],
					"hidden" : 0,
					"midpoints" : [  ]
				}

			}
, 			{
				"patchline" : 				{
					"source" : [ "obj-25", 2 ],
					"destination" : [ "obj-22", 0 ],
					"hidden" : 0,
					"midpoints" : [  ]
				}

			}
, 			{
				"patchline" : 				{
					"source" : [ "obj-25", 1 ],
					"destination" : [ "obj-23", 0 ],
					"hidden" : 0,
					"midpoints" : [  ]
				}

			}
, 			{
				"patchline" : 				{
					"source" : [ "obj-25", 0 ],
					"destination" : [ "obj-24", 0 ],
					"hidden" : 0,
					"midpoints" : [  ]
				}

			}
, 			{
				"patchline" : 				{
					"source" : [ "obj-25", 7 ],
					"destination" : [ "obj-17", 0 ],
					"hidden" : 0,
					"midpoints" : [  ]
				}

			}
, 			{
				"patchline" : 				{
					"source" : [ "obj-25", 6 ],
					"destination" : [ "obj-18", 0 ],
					"hidden" : 0,
					"midpoints" : [  ]
				}

			}
, 			{
				"patchline" : 				{
					"source" : [ "obj-25", 5 ],
					"destination" : [ "obj-19", 0 ],
					"hidden" : 0,
					"midpoints" : [  ]
				}

			}
, 			{
				"patchline" : 				{
					"source" : [ "obj-57", 5 ],
					"destination" : [ "obj-51", 0 ],
					"hidden" : 0,
					"midpoints" : [  ]
				}

			}
, 			{
				"patchline" : 				{
					"source" : [ "obj-57", 6 ],
					"destination" : [ "obj-50", 0 ],
					"hidden" : 0,
					"midpoints" : [  ]
				}

			}
, 			{
				"patchline" : 				{
					"source" : [ "obj-57", 7 ],
					"destination" : [ "obj-49", 0 ],
					"hidden" : 0,
					"midpoints" : [  ]
				}

			}
, 			{
				"patchline" : 				{
					"source" : [ "obj-57", 0 ],
					"destination" : [ "obj-56", 0 ],
					"hidden" : 0,
					"midpoints" : [  ]
				}

			}
, 			{
				"patchline" : 				{
					"source" : [ "obj-57", 1 ],
					"destination" : [ "obj-55", 0 ],
					"hidden" : 0,
					"midpoints" : [  ]
				}

			}
, 			{
				"patchline" : 				{
					"source" : [ "obj-57", 2 ],
					"destination" : [ "obj-54", 0 ],
					"hidden" : 0,
					"midpoints" : [  ]
				}

			}
, 			{
				"patchline" : 				{
					"source" : [ "obj-57", 3 ],
					"destination" : [ "obj-53", 0 ],
					"hidden" : 0,
					"midpoints" : [  ]
				}

			}
, 			{
				"patchline" : 				{
					"source" : [ "obj-57", 4 ],
					"destination" : [ "obj-52", 0 ],
					"hidden" : 0,
					"midpoints" : [  ]
				}

			}
 ]
	}

}
