{
	"patcher" : 	{
		"fileversion" : 1,
		"rect" : [ 800.0, 73.0, 747.0, 634.0 ],
		"bglocked" : 0,
		"defrect" : [ 800.0, 73.0, 747.0, 634.0 ],
		"openrect" : [ 0.0, 0.0, 0.0, 0.0 ],
		"openinpresentation" : 0,
		"default_fontsize" : 12.0,
		"default_fontface" : 0,
		"default_fontname" : "Arial",
		"gridonopen" : 0,
		"gridsize" : [ 15.0, 15.0 ],
		"gridsnaponopen" : 0,
		"toolbarvisible" : 1,
		"boxanimatetime" : 200,
		"imprint" : 0,
		"enablehscroll" : 1,
		"enablevscroll" : 1,
		"devicewidth" : 0.0,
		"boxes" : [ 			{
				"box" : 				{
					"maxclass" : "comment",
					"text" : "Use the master level slider on the APC40 to regulate this level.",
					"linecount" : 3,
					"patching_rect" : [ 480.0, 420.0, 156.0, 48.0 ],
					"numinlets" : 1,
					"id" : "obj-26",
					"fontname" : "Arial",
					"numoutlets" : 0,
					"fontsize" : 12.0
				}

			}
, 			{
				"box" : 				{
					"maxclass" : "newobj",
					"text" : "GL_APCLevels",
					"patching_rect" : [ 423.0, 381.0, 127.0, 20.0 ],
					"numinlets" : 0,
					"id" : "obj-22",
					"fontname" : "Arial",
					"numoutlets" : 9,
					"outlettype" : [ "float", "float", "float", "float", "float", "float", "float", "float", "float" ],
					"fontsize" : 12.0
				}

			}
, 			{
				"box" : 				{
					"maxclass" : "comment",
					"text" : "Trigger sounds from a coll library/buffer\nSimply create a new coll (text file based on apc-sample-library.txt), and matching buffers.",
					"linecount" : 3,
					"patching_rect" : [ 405.0, 218.0, 251.0, 48.0 ],
					"numinlets" : 1,
					"id" : "obj-21",
					"fontname" : "Arial",
					"numoutlets" : 0,
					"fontsize" : 12.0
				}

			}
, 			{
				"box" : 				{
					"maxclass" : "newobj",
					"text" : "p buffers",
					"patching_rect" : [ 542.0, 329.0, 57.0, 20.0 ],
					"numinlets" : 0,
					"id" : "obj-17",
					"fontname" : "Arial",
					"numoutlets" : 0,
					"fontsize" : 12.0,
					"patcher" : 					{
						"fileversion" : 1,
						"rect" : [ 723.0, 391.0, 761.0, 544.0 ],
						"bglocked" : 0,
						"defrect" : [ 723.0, 391.0, 761.0, 544.0 ],
						"openrect" : [ 0.0, 0.0, 0.0, 0.0 ],
						"openinpresentation" : 0,
						"default_fontsize" : 12.0,
						"default_fontface" : 0,
						"default_fontname" : "Arial",
						"gridonopen" : 0,
						"gridsize" : [ 15.0, 15.0 ],
						"gridsnaponopen" : 0,
						"toolbarvisible" : 1,
						"boxanimatetime" : 200,
						"imprint" : 0,
						"enablehscroll" : 1,
						"enablevscroll" : 1,
						"devicewidth" : 0.0,
						"boxes" : [ 							{
								"box" : 								{
									"maxclass" : "newobj",
									"text" : "buffer~ u 34493_anbo_u_normal.wav",
									"patching_rect" : [ 267.0, 349.0, 210.0, 20.0 ],
									"numinlets" : 1,
									"id" : "obj-12",
									"fontname" : "Arial",
									"numoutlets" : 2,
									"outlettype" : [ "float", "bang" ],
									"fontsize" : 12.0,
									"color" : [ 1.0, 0.360784, 0.682353, 1.0 ]
								}

							}
, 							{
								"box" : 								{
									"maxclass" : "newobj",
									"text" : "buffer~ o 34491_anbo_o_normal.wav",
									"patching_rect" : [ 267.0, 330.0, 210.0, 20.0 ],
									"numinlets" : 1,
									"id" : "obj-13",
									"fontname" : "Arial",
									"numoutlets" : 2,
									"outlettype" : [ "float", "bang" ],
									"fontsize" : 12.0,
									"color" : [ 1.0, 0.360784, 0.682353, 1.0 ]
								}

							}
, 							{
								"box" : 								{
									"maxclass" : "newobj",
									"text" : "buffer~ i 34489_anbo_i_normal.wav",
									"patching_rect" : [ 267.0, 312.0, 202.0, 20.0 ],
									"numinlets" : 1,
									"id" : "obj-14",
									"fontname" : "Arial",
									"numoutlets" : 2,
									"outlettype" : [ "float", "bang" ],
									"fontsize" : 12.0,
									"color" : [ 1.0, 0.360784, 0.682353, 1.0 ]
								}

							}
, 							{
								"box" : 								{
									"maxclass" : "newobj",
									"text" : "buffer~ e 34487_anbo_e_normal.wav",
									"patching_rect" : [ 267.0, 295.0, 210.0, 20.0 ],
									"numinlets" : 1,
									"id" : "obj-15",
									"fontname" : "Arial",
									"numoutlets" : 2,
									"outlettype" : [ "float", "bang" ],
									"fontsize" : 12.0,
									"color" : [ 1.0, 0.360784, 0.682353, 1.0 ]
								}

							}
, 							{
								"box" : 								{
									"maxclass" : "comment",
									"text" : "vowels by anbo",
									"patching_rect" : [ 595.0, 481.0, 93.0, 20.0 ],
									"numinlets" : 1,
									"id" : "obj-16",
									"fontname" : "Arial",
									"numoutlets" : 0,
									"fontsize" : 12.0
								}

							}
, 							{
								"box" : 								{
									"maxclass" : "comment",
									"text" : "wok lids by Corsica_S",
									"patching_rect" : [ 595.0, 458.0, 128.0, 20.0 ],
									"numinlets" : 1,
									"id" : "obj-17",
									"fontname" : "Arial",
									"numoutlets" : 0,
									"fontsize" : 12.0
								}

							}
, 							{
								"box" : 								{
									"maxclass" : "newobj",
									"text" : "buffer~ a 34485_anbo_a_normal.wav",
									"patching_rect" : [ 267.0, 277.0, 210.0, 20.0 ],
									"numinlets" : 1,
									"id" : "obj-18",
									"fontname" : "Arial",
									"numoutlets" : 2,
									"outlettype" : [ "float", "bang" ],
									"fontsize" : 12.0,
									"color" : [ 1.0, 0.360784, 0.682353, 1.0 ]
								}

							}
, 							{
								"box" : 								{
									"maxclass" : "comment",
									"text" : "tabla and aya by loofa",
									"patching_rect" : [ 244.0, 437.0, 128.0, 20.0 ],
									"numinlets" : 1,
									"id" : "obj-19",
									"fontname" : "Arial",
									"numoutlets" : 0,
									"fontsize" : 12.0
								}

							}
, 							{
								"box" : 								{
									"maxclass" : "comment",
									"text" : "They are covered by a Creative Commons Sampling Plus 1. license that can be found here: http://creativecommons.org/licenses/sampling+/1.0/",
									"linecount" : 2,
									"patching_rect" : [ 198.0, 398.0, 419.0, 34.0 ],
									"numinlets" : 1,
									"id" : "obj-20",
									"fontname" : "Arial",
									"numoutlets" : 0,
									"fontsize" : 12.0
								}

							}
, 							{
								"box" : 								{
									"maxclass" : "newobj",
									"text" : "buffer~ wok2 wok_lid_02.aiff",
									"patching_rect" : [ 294.0, 255.0, 162.0, 20.0 ],
									"numinlets" : 1,
									"id" : "obj-21",
									"fontname" : "Arial",
									"numoutlets" : 2,
									"outlettype" : [ "float", "bang" ],
									"fontsize" : 12.0,
									"color" : [ 0.6, 0.6, 1.0, 1.0 ]
								}

							}
, 							{
								"box" : 								{
									"maxclass" : "newobj",
									"text" : "buffer~ wok1 wok_lid_01.aiff",
									"patching_rect" : [ 294.0, 237.0, 162.0, 20.0 ],
									"numinlets" : 1,
									"id" : "obj-22",
									"fontname" : "Arial",
									"numoutlets" : 2,
									"outlettype" : [ "float", "bang" ],
									"fontsize" : 12.0,
									"color" : [ 0.6, 0.6, 1.0, 1.0 ]
								}

							}
, 							{
								"box" : 								{
									"maxclass" : "newobj",
									"text" : "buffer~ baya5 23689_loofa_bahia017.aif",
									"patching_rect" : [ 380.0, 214.0, 226.0, 20.0 ],
									"numinlets" : 1,
									"id" : "obj-23",
									"fontname" : "Arial",
									"numoutlets" : 2,
									"outlettype" : [ "float", "bang" ],
									"fontsize" : 12.0,
									"color" : [ 0.8, 0.54902, 0.54902, 1.0 ]
								}

							}
, 							{
								"box" : 								{
									"maxclass" : "newobj",
									"text" : "buffer~ baya4 23687_loofa_bahia015.aif",
									"patching_rect" : [ 380.0, 196.0, 226.0, 20.0 ],
									"numinlets" : 1,
									"id" : "obj-24",
									"fontname" : "Arial",
									"numoutlets" : 2,
									"outlettype" : [ "float", "bang" ],
									"fontsize" : 12.0,
									"color" : [ 0.8, 0.54902, 0.54902, 1.0 ]
								}

							}
, 							{
								"box" : 								{
									"maxclass" : "newobj",
									"text" : "buffer~ baya3 23679_loofa_bahia007.aif",
									"patching_rect" : [ 380.0, 179.0, 226.0, 20.0 ],
									"numinlets" : 1,
									"id" : "obj-25",
									"fontname" : "Arial",
									"numoutlets" : 2,
									"outlettype" : [ "float", "bang" ],
									"fontsize" : 12.0,
									"color" : [ 0.8, 0.54902, 0.54902, 1.0 ]
								}

							}
, 							{
								"box" : 								{
									"maxclass" : "newobj",
									"text" : "buffer~ baya2 23675_loofa_bahia003.aif",
									"patching_rect" : [ 380.0, 162.0, 226.0, 20.0 ],
									"numinlets" : 1,
									"id" : "obj-26",
									"fontname" : "Arial",
									"numoutlets" : 2,
									"outlettype" : [ "float", "bang" ],
									"fontsize" : 12.0,
									"color" : [ 0.8, 0.54902, 0.54902, 1.0 ]
								}

							}
, 							{
								"box" : 								{
									"maxclass" : "newobj",
									"text" : "buffer~ baya1 23673_loofa_bahia001.aif",
									"patching_rect" : [ 380.0, 144.0, 226.0, 20.0 ],
									"numinlets" : 1,
									"id" : "obj-27",
									"fontname" : "Arial",
									"numoutlets" : 2,
									"outlettype" : [ "float", "bang" ],
									"fontsize" : 12.0,
									"color" : [ 0.8, 0.54902, 0.54902, 1.0 ]
								}

							}
, 							{
								"box" : 								{
									"maxclass" : "newobj",
									"text" : "buffer~ tabla5 EL_Ancient_Spheres.aif",
									"patching_rect" : [ 149.0, 216.0, 216.0, 20.0 ],
									"numinlets" : 1,
									"id" : "obj-28",
									"fontname" : "Arial",
									"numoutlets" : 2,
									"outlettype" : [ "float", "bang" ],
									"fontsize" : 12.0,
									"color" : [ 0.290196, 0.611765, 0.380392, 1.0 ]
								}

							}
, 							{
								"box" : 								{
									"maxclass" : "newobj",
									"text" : "buffer~ tabla4 EL_Percolating_Waves.aif",
									"patching_rect" : [ 149.0, 198.0, 228.0, 20.0 ],
									"numinlets" : 1,
									"id" : "obj-29",
									"fontname" : "Arial",
									"numoutlets" : 2,
									"outlettype" : [ "float", "bang" ],
									"fontsize" : 12.0,
									"color" : [ 0.290196, 0.611765, 0.380392, 1.0 ]
								}

							}
, 							{
								"box" : 								{
									"maxclass" : "newobj",
									"text" : "buffer~ tabla3 EL_Warped.aif",
									"patching_rect" : [ 149.0, 180.0, 166.0, 20.0 ],
									"numinlets" : 1,
									"id" : "obj-30",
									"fontname" : "Arial",
									"numoutlets" : 2,
									"outlettype" : [ "float", "bang" ],
									"fontsize" : 12.0,
									"color" : [ 0.290196, 0.611765, 0.380392, 1.0 ]
								}

							}
, 							{
								"box" : 								{
									"maxclass" : "newobj",
									"text" : "buffer~ tabla2 EL_Echo.aif",
									"patching_rect" : [ 149.0, 162.0, 152.0, 20.0 ],
									"numinlets" : 1,
									"id" : "obj-31",
									"fontname" : "Arial",
									"numoutlets" : 2,
									"outlettype" : [ "float", "bang" ],
									"fontsize" : 12.0,
									"color" : [ 0.290196, 0.611765, 0.380392, 1.0 ]
								}

							}
, 							{
								"box" : 								{
									"maxclass" : "newobj",
									"text" : "buffer~ tabla1 EL_Bass01.aif",
									"patching_rect" : [ 149.0, 144.0, 165.0, 20.0 ],
									"numinlets" : 1,
									"id" : "obj-32",
									"fontname" : "Arial",
									"numoutlets" : 2,
									"outlettype" : [ "float", "bang" ],
									"fontsize" : 12.0,
									"color" : [ 0.290196, 0.611765, 0.380392, 1.0 ]
								}

							}
, 							{
								"box" : 								{
									"maxclass" : "comment",
									"text" : "All of these soundfiles were downloaded from http://freesound.iua.upf.edu/",
									"patching_rect" : [ 198.0, 375.0, 405.0, 20.0 ],
									"numinlets" : 1,
									"id" : "obj-33",
									"fontname" : "Arial",
									"numoutlets" : 0,
									"fontsize" : 12.0
								}

							}
 ],
						"lines" : [  ]
					}
,
					"saved_object_attributes" : 					{
						"fontname" : "Arial",
						"globalpatchername" : "",
						"default_fontface" : 0,
						"fontface" : 0,
						"fontsize" : 12.0,
						"default_fontname" : "Arial",
						"default_fontsize" : 12.0
					}

				}

			}
, 			{
				"box" : 				{
					"maxclass" : "newobj",
					"text" : "GL_APCClipLaunchAddress",
					"patching_rect" : [ 405.0, 274.0, 162.0, 20.0 ],
					"numinlets" : 0,
					"id" : "obj-39",
					"fontname" : "Arial",
					"numoutlets" : 3,
					"outlettype" : [ "int", "int", "int" ],
					"fontsize" : 12.0
				}

			}
, 			{
				"box" : 				{
					"maxclass" : "newobj",
					"text" : "*~ 0.",
					"patching_rect" : [ 406.0, 475.0, 36.0, 20.0 ],
					"numinlets" : 2,
					"id" : "obj-38",
					"fontname" : "Arial",
					"numoutlets" : 1,
					"outlettype" : [ "signal" ],
					"fontsize" : 12.0
				}

			}
, 			{
				"box" : 				{
					"maxclass" : "dial",
					"patching_rect" : [ 423.0, 405.0, 40.0, 40.0 ],
					"numinlets" : 1,
					"id" : "obj-37",
					"numoutlets" : 1,
					"outlettype" : [ "float" ],
					"floatoutput" : 1,
					"size" : 1.0
				}

			}
, 			{
				"box" : 				{
					"maxclass" : "flonum",
					"patching_rect" : [ 423.0, 448.0, 50.0, 20.0 ],
					"numinlets" : 1,
					"id" : "obj-36",
					"fontname" : "Arial",
					"numoutlets" : 2,
					"outlettype" : [ "float", "bang" ],
					"fontsize" : 12.0
				}

			}
, 			{
				"box" : 				{
					"maxclass" : "ezdac~",
					"patching_rect" : [ 406.0, 502.0, 45.0, 45.0 ],
					"numinlets" : 2,
					"id" : "obj-33",
					"numoutlets" : 0
				}

			}
, 			{
				"box" : 				{
					"maxclass" : "newobj",
					"text" : "poly~ simple-sampler_auto-poly~ 40",
					"patching_rect" : [ 406.0, 352.0, 204.0, 20.0 ],
					"numinlets" : 1,
					"id" : "obj-29",
					"fontname" : "Arial",
					"numoutlets" : 1,
					"outlettype" : [ "signal" ],
					"fontsize" : 12.0
				}

			}
, 			{
				"box" : 				{
					"maxclass" : "newobj",
					"text" : "prepend note",
					"patching_rect" : [ 406.0, 327.0, 81.0, 20.0 ],
					"numinlets" : 1,
					"id" : "obj-23",
					"fontname" : "Arial",
					"numoutlets" : 1,
					"outlettype" : [ "" ],
					"fontsize" : 12.0
				}

			}
, 			{
				"box" : 				{
					"maxclass" : "newobj",
					"text" : "coll apc-sample-library",
					"patching_rect" : [ 406.0, 301.0, 131.0, 20.0 ],
					"numinlets" : 1,
					"id" : "obj-20",
					"fontname" : "Arial",
					"numoutlets" : 4,
					"outlettype" : [ "", "", "", "" ],
					"fontsize" : 12.0,
					"saved_object_attributes" : 					{
						"embed" : 0
					}

				}

			}
, 			{
				"box" : 				{
					"maxclass" : "comment",
					"text" : "Get the raw data:",
					"patching_rect" : [ 24.0, 207.0, 251.0, 20.0 ],
					"numinlets" : 1,
					"id" : "obj-19",
					"fontname" : "Arial",
					"numoutlets" : 0,
					"fontsize" : 12.0
				}

			}
, 			{
				"box" : 				{
					"maxclass" : "comment",
					"text" : "Turn on and off cells in a matrix:",
					"patching_rect" : [ 24.0, 350.0, 251.0, 20.0 ],
					"numinlets" : 1,
					"id" : "obj-18",
					"fontname" : "Arial",
					"numoutlets" : 0,
					"fontsize" : 12.0
				}

			}
, 			{
				"box" : 				{
					"maxclass" : "comment",
					"text" : "Combined",
					"patching_rect" : [ 163.0, 283.0, 66.0, 20.0 ],
					"numinlets" : 1,
					"id" : "obj-16",
					"fontname" : "Arial",
					"numoutlets" : 0,
					"fontsize" : 12.0
				}

			}
, 			{
				"box" : 				{
					"maxclass" : "comment",
					"text" : "Y",
					"patching_rect" : [ 112.0, 283.0, 19.0, 20.0 ],
					"numinlets" : 1,
					"id" : "obj-15",
					"fontname" : "Arial",
					"numoutlets" : 0,
					"fontsize" : 12.0
				}

			}
, 			{
				"box" : 				{
					"maxclass" : "comment",
					"text" : "X",
					"patching_rect" : [ 35.0, 283.0, 19.0, 20.0 ],
					"numinlets" : 1,
					"id" : "obj-14",
					"fontname" : "Arial",
					"numoutlets" : 0,
					"fontsize" : 12.0
				}

			}
, 			{
				"box" : 				{
					"maxclass" : "message",
					"text" : "clear",
					"patching_rect" : [ 42.0, 461.0, 37.0, 18.0 ],
					"numinlets" : 2,
					"id" : "obj-34",
					"fontname" : "Arial",
					"numoutlets" : 1,
					"outlettype" : [ "" ],
					"fontsize" : 12.0
				}

			}
, 			{
				"box" : 				{
					"maxclass" : "newobj",
					"text" : "GL_APCClipLaunchAddress",
					"patching_rect" : [ 24.0, 374.0, 162.0, 20.0 ],
					"numinlets" : 0,
					"id" : "obj-32",
					"fontname" : "Arial",
					"numoutlets" : 3,
					"outlettype" : [ "int", "int", "int" ],
					"fontsize" : 12.0
				}

			}
, 			{
				"box" : 				{
					"maxclass" : "newobj",
					"text" : "pipe 0 0 250",
					"patching_rect" : [ 241.0, 439.0, 77.0, 20.0 ],
					"numinlets" : 3,
					"id" : "obj-31",
					"fontname" : "Arial",
					"numoutlets" : 2,
					"outlettype" : [ "", "" ],
					"fontsize" : 12.0
				}

			}
, 			{
				"box" : 				{
					"maxclass" : "newobj",
					"text" : "pack 0 0 0",
					"patching_rect" : [ 241.0, 463.0, 77.0, 20.0 ],
					"numinlets" : 3,
					"id" : "obj-30",
					"fontname" : "Arial",
					"numoutlets" : 1,
					"outlettype" : [ "" ],
					"fontsize" : 12.0
				}

			}
, 			{
				"box" : 				{
					"maxclass" : "matrixctrl",
					"patching_rect" : [ 173.0, 486.0, 130.0, 66.0 ],
					"numinlets" : 1,
					"id" : "obj-25",
					"numoutlets" : 2,
					"outlettype" : [ "list", "list" ],
					"rows" : 5
				}

			}
, 			{
				"box" : 				{
					"maxclass" : "newobj",
					"text" : "pack 0 0 1",
					"patching_rect" : [ 173.0, 463.0, 66.0, 20.0 ],
					"numinlets" : 3,
					"id" : "obj-24",
					"fontname" : "Arial",
					"numoutlets" : 1,
					"outlettype" : [ "" ],
					"fontsize" : 12.0
				}

			}
, 			{
				"box" : 				{
					"maxclass" : "matrixctrl",
					"patching_rect" : [ 24.0, 486.0, 130.0, 66.0 ],
					"numinlets" : 1,
					"id" : "obj-1",
					"numoutlets" : 2,
					"outlettype" : [ "list", "list" ],
					"rows" : 5
				}

			}
, 			{
				"box" : 				{
					"maxclass" : "newobj",
					"text" : "pack 0 0 inc",
					"patching_rect" : [ 24.0, 438.0, 87.0, 20.0 ],
					"numinlets" : 3,
					"id" : "obj-12",
					"fontname" : "Arial",
					"numoutlets" : 1,
					"outlettype" : [ "" ],
					"fontsize" : 12.0
				}

			}
, 			{
				"box" : 				{
					"maxclass" : "newobj",
					"text" : "- 1",
					"patching_rect" : [ 58.0, 400.0, 32.5, 20.0 ],
					"numinlets" : 2,
					"id" : "obj-11",
					"fontname" : "Arial",
					"numoutlets" : 1,
					"outlettype" : [ "int" ],
					"fontsize" : 12.0
				}

			}
, 			{
				"box" : 				{
					"maxclass" : "newobj",
					"text" : "- 1",
					"patching_rect" : [ 24.0, 400.0, 32.5, 20.0 ],
					"numinlets" : 2,
					"id" : "obj-10",
					"fontname" : "Arial",
					"numoutlets" : 1,
					"outlettype" : [ "int" ],
					"fontsize" : 12.0
				}

			}
, 			{
				"box" : 				{
					"maxclass" : "number",
					"patching_rect" : [ 167.0, 260.0, 50.0, 20.0 ],
					"numinlets" : 1,
					"id" : "obj-8",
					"fontname" : "Arial",
					"numoutlets" : 2,
					"outlettype" : [ "int", "bang" ],
					"fontsize" : 12.0
				}

			}
, 			{
				"box" : 				{
					"maxclass" : "number",
					"patching_rect" : [ 96.0, 260.0, 50.0, 20.0 ],
					"numinlets" : 1,
					"id" : "obj-3",
					"fontname" : "Arial",
					"numoutlets" : 2,
					"outlettype" : [ "int", "bang" ],
					"fontsize" : 12.0
				}

			}
, 			{
				"box" : 				{
					"maxclass" : "number",
					"patching_rect" : [ 24.0, 260.0, 50.0, 20.0 ],
					"numinlets" : 1,
					"id" : "obj-4",
					"fontname" : "Arial",
					"numoutlets" : 2,
					"outlettype" : [ "int", "bang" ],
					"fontsize" : 12.0
				}

			}
, 			{
				"box" : 				{
					"maxclass" : "newobj",
					"text" : "GL_APCClipLaunchAddress",
					"patching_rect" : [ 24.0, 229.0, 162.0, 20.0 ],
					"numinlets" : 0,
					"id" : "obj-7",
					"fontname" : "Arial",
					"numoutlets" : 3,
					"outlettype" : [ "int", "int", "int" ],
					"fontsize" : 12.0
				}

			}
, 			{
				"box" : 				{
					"maxclass" : "comment",
					"varname" : "autohelp_top_title",
					"text" : "GL_APCClipLaunchAddress",
					"patching_rect" : [ 10.0, 8.0, 485.0, 30.0 ],
					"numinlets" : 1,
					"id" : "obj-2",
					"fontname" : "Arial",
					"frgb" : [ 0.93, 0.93, 0.97, 1.0 ],
					"textcolor" : [ 0.93, 0.93, 0.97, 1.0 ],
					"numoutlets" : 0,
					"fontface" : 3,
					"fontsize" : 20.871338
				}

			}
, 			{
				"box" : 				{
					"maxclass" : "comment",
					"varname" : "autohelp_top_digest",
					"text" : "Get the X,Y position of \"Clip Launch\" buttons on the APC40",
					"patching_rect" : [ 10.0, 36.0, 485.0, 21.0 ],
					"numinlets" : 1,
					"id" : "obj-5",
					"fontname" : "Arial",
					"frgb" : [ 0.93, 0.93, 0.97, 1.0 ],
					"textcolor" : [ 0.93, 0.93, 0.97, 1.0 ],
					"numoutlets" : 0,
					"fontsize" : 12.754705
				}

			}
, 			{
				"box" : 				{
					"maxclass" : "comment",
					"varname" : "autohelp_top_description",
					"text" : "This patch receives data from \"Clip Launch\" panel in the top left of the APC40.\n\nWhen a button is pressed, the clip launch address patch outputs three numbers:\n- The X position of the button (the number of the column), from 1-8\n- The Y position of the button (the number of the row), from 1-5\n- The numbers combined (10X + Y) -- the first digit is X and the second is Y.\n\nThis could be used for all sorts of purposes: to turn on and off cells in a matrix; to launch different sets of samples that were indexed by number, etc.",
					"linecount" : 9,
					"patching_rect" : [ 10.0, 57.0, 488.0, 126.0 ],
					"numinlets" : 1,
					"id" : "obj-6",
					"fontname" : "Arial",
					"numoutlets" : 0,
					"fontsize" : 11.595187
				}

			}
, 			{
				"box" : 				{
					"maxclass" : "panel",
					"varname" : "autohelp_top_panel",
					"patching_rect" : [ 5.0, 5.0, 495.0, 52.0 ],
					"numinlets" : 1,
					"id" : "obj-13",
					"grad2" : [ 0.85, 0.85, 0.85, 1.0 ],
					"mode" : 1,
					"numoutlets" : 0,
					"background" : 1,
					"grad1" : [ 0.27, 0.35, 0.47, 1.0 ]
				}

			}
 ],
		"lines" : [ 			{
				"patchline" : 				{
					"source" : [ "obj-22", 8 ],
					"destination" : [ "obj-37", 0 ],
					"hidden" : 0,
					"midpoints" : [  ]
				}

			}
, 			{
				"patchline" : 				{
					"source" : [ "obj-39", 2 ],
					"destination" : [ "obj-20", 0 ],
					"hidden" : 0,
					"midpoints" : [  ]
				}

			}
, 			{
				"patchline" : 				{
					"source" : [ "obj-38", 0 ],
					"destination" : [ "obj-33", 1 ],
					"hidden" : 0,
					"midpoints" : [  ]
				}

			}
, 			{
				"patchline" : 				{
					"source" : [ "obj-38", 0 ],
					"destination" : [ "obj-33", 0 ],
					"hidden" : 0,
					"midpoints" : [  ]
				}

			}
, 			{
				"patchline" : 				{
					"source" : [ "obj-29", 0 ],
					"destination" : [ "obj-38", 0 ],
					"hidden" : 0,
					"midpoints" : [  ]
				}

			}
, 			{
				"patchline" : 				{
					"source" : [ "obj-36", 0 ],
					"destination" : [ "obj-38", 1 ],
					"hidden" : 0,
					"midpoints" : [  ]
				}

			}
, 			{
				"patchline" : 				{
					"source" : [ "obj-37", 0 ],
					"destination" : [ "obj-36", 0 ],
					"hidden" : 0,
					"midpoints" : [  ]
				}

			}
, 			{
				"patchline" : 				{
					"source" : [ "obj-23", 0 ],
					"destination" : [ "obj-29", 0 ],
					"hidden" : 0,
					"midpoints" : [  ]
				}

			}
, 			{
				"patchline" : 				{
					"source" : [ "obj-20", 0 ],
					"destination" : [ "obj-23", 0 ],
					"hidden" : 0,
					"midpoints" : [  ]
				}

			}
, 			{
				"patchline" : 				{
					"source" : [ "obj-7", 2 ],
					"destination" : [ "obj-8", 0 ],
					"hidden" : 0,
					"midpoints" : [  ]
				}

			}
, 			{
				"patchline" : 				{
					"source" : [ "obj-7", 1 ],
					"destination" : [ "obj-3", 0 ],
					"hidden" : 0,
					"midpoints" : [  ]
				}

			}
, 			{
				"patchline" : 				{
					"source" : [ "obj-7", 0 ],
					"destination" : [ "obj-4", 0 ],
					"hidden" : 0,
					"midpoints" : [  ]
				}

			}
, 			{
				"patchline" : 				{
					"source" : [ "obj-12", 0 ],
					"destination" : [ "obj-1", 0 ],
					"hidden" : 0,
					"midpoints" : [  ]
				}

			}
, 			{
				"patchline" : 				{
					"source" : [ "obj-10", 0 ],
					"destination" : [ "obj-12", 0 ],
					"hidden" : 0,
					"midpoints" : [  ]
				}

			}
, 			{
				"patchline" : 				{
					"source" : [ "obj-11", 0 ],
					"destination" : [ "obj-12", 1 ],
					"hidden" : 0,
					"midpoints" : [  ]
				}

			}
, 			{
				"patchline" : 				{
					"source" : [ "obj-24", 0 ],
					"destination" : [ "obj-25", 0 ],
					"hidden" : 0,
					"midpoints" : [  ]
				}

			}
, 			{
				"patchline" : 				{
					"source" : [ "obj-11", 0 ],
					"destination" : [ "obj-24", 1 ],
					"hidden" : 0,
					"midpoints" : [ 67.5, 429.0, 206.0, 429.0 ]
				}

			}
, 			{
				"patchline" : 				{
					"source" : [ "obj-10", 0 ],
					"destination" : [ "obj-24", 0 ],
					"hidden" : 0,
					"midpoints" : [ 33.5, 429.0, 182.5, 429.0 ]
				}

			}
, 			{
				"patchline" : 				{
					"source" : [ "obj-30", 0 ],
					"destination" : [ "obj-25", 0 ],
					"hidden" : 0,
					"midpoints" : [  ]
				}

			}
, 			{
				"patchline" : 				{
					"source" : [ "obj-11", 0 ],
					"destination" : [ "obj-31", 1 ],
					"hidden" : 0,
					"midpoints" : [ 67.5, 429.0, 279.5, 429.0 ]
				}

			}
, 			{
				"patchline" : 				{
					"source" : [ "obj-10", 0 ],
					"destination" : [ "obj-31", 0 ],
					"hidden" : 0,
					"midpoints" : [ 33.5, 429.0, 250.5, 429.0 ]
				}

			}
, 			{
				"patchline" : 				{
					"source" : [ "obj-31", 0 ],
					"destination" : [ "obj-30", 0 ],
					"hidden" : 0,
					"midpoints" : [  ]
				}

			}
, 			{
				"patchline" : 				{
					"source" : [ "obj-31", 1 ],
					"destination" : [ "obj-30", 1 ],
					"hidden" : 0,
					"midpoints" : [  ]
				}

			}
, 			{
				"patchline" : 				{
					"source" : [ "obj-32", 0 ],
					"destination" : [ "obj-10", 0 ],
					"hidden" : 0,
					"midpoints" : [  ]
				}

			}
, 			{
				"patchline" : 				{
					"source" : [ "obj-32", 1 ],
					"destination" : [ "obj-11", 0 ],
					"hidden" : 0,
					"midpoints" : [  ]
				}

			}
, 			{
				"patchline" : 				{
					"source" : [ "obj-34", 0 ],
					"destination" : [ "obj-1", 0 ],
					"hidden" : 0,
					"midpoints" : [  ]
				}

			}
 ]
	}

}
