{
	"patcher" : 	{
		"fileversion" : 1,
		"appversion" : 		{
			"major" : 5,
			"minor" : 1,
			"revision" : 9
		}
,
		"rect" : [ 1757.0, 137.0, 1132.0, 861.0 ],
		"bglocked" : 0,
		"defrect" : [ 1757.0, 137.0, 1132.0, 861.0 ],
		"openrect" : [ 0.0, 0.0, 0.0, 0.0 ],
		"openinpresentation" : 0,
		"default_fontsize" : 12.0,
		"default_fontface" : 0,
		"default_fontname" : "Arial",
		"gridonopen" : 0,
		"gridsize" : [ 15.0, 15.0 ],
		"gridsnaponopen" : 0,
		"toolbarvisible" : 1,
		"boxanimatetime" : 200,
		"imprint" : 0,
		"enablehscroll" : 1,
		"enablevscroll" : 1,
		"devicewidth" : 0.0,
		"boxes" : [ 			{
				"box" : 				{
					"maxclass" : "button",
					"outlettype" : [ "bang" ],
					"patching_rect" : [ 150.0, 1204.0, 20.0, 20.0 ],
					"id" : "obj-26",
					"numinlets" : 1,
					"numoutlets" : 1
				}

			}
, 			{
				"box" : 				{
					"maxclass" : "comment",
					"text" : "turns on output only after initial calibration.",
					"linecount" : 3,
					"patching_rect" : [ 56.0, 1201.0, 92.0, 48.0 ],
					"fontsize" : 12.0,
					"id" : "obj-31",
					"numinlets" : 1,
					"fontname" : "Arial",
					"numoutlets" : 0
				}

			}
, 			{
				"box" : 				{
					"maxclass" : "newobj",
					"text" : "delay 100",
					"outlettype" : [ "bang" ],
					"patching_rect" : [ 150.0, 1227.0, 63.0, 20.0 ],
					"fontsize" : 12.0,
					"id" : "obj-18",
					"numinlets" : 2,
					"fontname" : "Arial",
					"numoutlets" : 1
				}

			}
, 			{
				"box" : 				{
					"maxclass" : "message",
					"text" : "1",
					"outlettype" : [ "" ],
					"patching_rect" : [ 211.0, 1228.0, 32.5, 18.0 ],
					"fontsize" : 12.0,
					"id" : "obj-17",
					"numinlets" : 2,
					"fontname" : "Arial",
					"numoutlets" : 1
				}

			}
, 			{
				"box" : 				{
					"maxclass" : "toggle",
					"outlettype" : [ "int" ],
					"patching_rect" : [ 243.0, 1227.0, 20.0, 20.0 ],
					"id" : "obj-14",
					"numinlets" : 1,
					"numoutlets" : 1
				}

			}
, 			{
				"box" : 				{
					"maxclass" : "newobj",
					"text" : "gate",
					"outlettype" : [ "" ],
					"patching_rect" : [ 243.0, 1254.0, 34.0, 20.0 ],
					"fontsize" : 12.0,
					"id" : "obj-15",
					"numinlets" : 2,
					"fontname" : "Arial",
					"numoutlets" : 1
				}

			}
, 			{
				"box" : 				{
					"maxclass" : "newobj",
					"text" : "loadmess 1",
					"outlettype" : [ "" ],
					"patching_rect" : [ 60.0, 38.0, 70.0, 20.0 ],
					"fontsize" : 12.0,
					"id" : "obj-10",
					"numinlets" : 1,
					"fontname" : "Arial",
					"numoutlets" : 1
				}

			}
, 			{
				"box" : 				{
					"maxclass" : "toggle",
					"outlettype" : [ "int" ],
					"patching_rect" : [ 29.0, 69.0, 20.0, 20.0 ],
					"id" : "obj-32",
					"numinlets" : 1,
					"numoutlets" : 1
				}

			}
, 			{
				"box" : 				{
					"maxclass" : "comment",
					"text" : "on/off",
					"patching_rect" : [ 30.0, 13.0, 42.0, 20.0 ],
					"fontsize" : 12.0,
					"id" : "obj-30",
					"numinlets" : 1,
					"fontname" : "Arial",
					"numoutlets" : 0
				}

			}
, 			{
				"box" : 				{
					"maxclass" : "newobj",
					"text" : "gate",
					"outlettype" : [ "" ],
					"patching_rect" : [ 29.0, 96.0, 34.0, 20.0 ],
					"fontsize" : 12.0,
					"id" : "obj-11",
					"numinlets" : 2,
					"fontname" : "Arial",
					"numoutlets" : 1
				}

			}
, 			{
				"box" : 				{
					"maxclass" : "inlet",
					"outlettype" : [ "" ],
					"patching_rect" : [ 29.0, 36.0, 25.0, 25.0 ],
					"id" : "obj-13",
					"numinlets" : 0,
					"numoutlets" : 1,
					"comment" : "on/off"
				}

			}
, 			{
				"box" : 				{
					"maxclass" : "newobj",
					"text" : "loadmess 0.02",
					"outlettype" : [ "" ],
					"patching_rect" : [ 632.0, 121.0, 89.0, 20.0 ],
					"fontsize" : 12.0,
					"id" : "obj-2",
					"numinlets" : 1,
					"fontname" : "Arial",
					"numoutlets" : 1
				}

			}
, 			{
				"box" : 				{
					"maxclass" : "flonum",
					"outlettype" : [ "float", "bang" ],
					"patching_rect" : [ 258.0, 1186.0, 50.0, 20.0 ],
					"fontsize" : 12.0,
					"id" : "obj-5",
					"numinlets" : 1,
					"fontname" : "Arial",
					"numoutlets" : 2
				}

			}
, 			{
				"box" : 				{
					"maxclass" : "comment",
					"text" : "the trigger is set off when the acceleration stops increasing; i.e., the first time that the current number is NOT greater than the previous number (buckets). \"Change\" is used to make sure that the trigger only fires once until it is reset.",
					"linecount" : 8,
					"patching_rect" : [ 663.0, 789.0, 178.0, 117.0 ],
					"fontsize" : 12.0,
					"id" : "obj-77",
					"numinlets" : 1,
					"fontname" : "Arial",
					"numoutlets" : 0
				}

			}
, 			{
				"box" : 				{
					"maxclass" : "button",
					"outlettype" : [ "bang" ],
					"patching_rect" : [ 594.0, 993.0, 20.0, 20.0 ],
					"id" : "obj-74",
					"numinlets" : 1,
					"numoutlets" : 1
				}

			}
, 			{
				"box" : 				{
					"maxclass" : "newobj",
					"text" : "change",
					"outlettype" : [ "", "int", "int" ],
					"patching_rect" : [ 578.0, 956.0, 50.0, 20.0 ],
					"fontsize" : 12.0,
					"id" : "obj-71",
					"numinlets" : 1,
					"fontname" : "Arial",
					"numoutlets" : 3
				}

			}
, 			{
				"box" : 				{
					"maxclass" : "newobj",
					"text" : "change",
					"outlettype" : [ "", "int", "int" ],
					"patching_rect" : [ 547.0, 893.0, 50.0, 20.0 ],
					"fontsize" : 12.0,
					"id" : "obj-69",
					"numinlets" : 1,
					"fontname" : "Arial",
					"numoutlets" : 3
				}

			}
, 			{
				"box" : 				{
					"maxclass" : "toggle",
					"outlettype" : [ "int" ],
					"patching_rect" : [ 578.0, 926.0, 20.0, 20.0 ],
					"id" : "obj-65",
					"numinlets" : 1,
					"numoutlets" : 1
				}

			}
, 			{
				"box" : 				{
					"maxclass" : "comment",
					"text" : "grab the accel data from the wiimote",
					"patching_rect" : [ 276.0, 154.0, 215.0, 20.0 ],
					"fontsize" : 12.0,
					"id" : "obj-47",
					"numinlets" : 1,
					"fontname" : "Arial",
					"numoutlets" : 0
				}

			}
, 			{
				"box" : 				{
					"maxclass" : "comment",
					"text" : "normalize the data; only look at positive, not negative accel changes.",
					"linecount" : 2,
					"patching_rect" : [ 237.0, 245.0, 215.0, 34.0 ],
					"fontsize" : 12.0,
					"id" : "obj-45",
					"numinlets" : 1,
					"fontname" : "Arial",
					"numoutlets" : 0
				}

			}
, 			{
				"box" : 				{
					"maxclass" : "toggle",
					"outlettype" : [ "int" ],
					"patching_rect" : [ 607.0, 862.0, 20.0, 20.0 ],
					"id" : "obj-141",
					"numinlets" : 1,
					"numoutlets" : 1
				}

			}
, 			{
				"box" : 				{
					"maxclass" : "toggle",
					"outlettype" : [ "int" ],
					"patching_rect" : [ 547.0, 863.0, 20.0, 20.0 ],
					"id" : "obj-38",
					"numinlets" : 1,
					"numoutlets" : 1
				}

			}
, 			{
				"box" : 				{
					"maxclass" : "newobj",
					"text" : "> 0.",
					"outlettype" : [ "int" ],
					"patching_rect" : [ 547.0, 837.0, 32.5, 20.0 ],
					"fontsize" : 12.0,
					"id" : "obj-41",
					"numinlets" : 2,
					"fontname" : "Arial",
					"numoutlets" : 1
				}

			}
, 			{
				"box" : 				{
					"maxclass" : "newobj",
					"text" : "< 0.",
					"outlettype" : [ "int" ],
					"patching_rect" : [ 607.0, 837.0, 32.5, 20.0 ],
					"fontsize" : 12.0,
					"id" : "obj-123",
					"numinlets" : 2,
					"fontname" : "Arial",
					"numoutlets" : 1
				}

			}
, 			{
				"box" : 				{
					"maxclass" : "flonum",
					"outlettype" : [ "float", "bang" ],
					"patching_rect" : [ 607.0, 810.0, 50.0, 20.0 ],
					"fontsize" : 12.0,
					"id" : "obj-81",
					"numinlets" : 1,
					"fontname" : "Arial",
					"numoutlets" : 2
				}

			}
, 			{
				"box" : 				{
					"maxclass" : "flonum",
					"outlettype" : [ "float", "bang" ],
					"patching_rect" : [ 547.0, 810.0, 50.0, 20.0 ],
					"fontsize" : 12.0,
					"id" : "obj-43",
					"numinlets" : 1,
					"fontname" : "Arial",
					"numoutlets" : 2
				}

			}
, 			{
				"box" : 				{
					"maxclass" : "newobj",
					"text" : "bucket 2",
					"outlettype" : [ "", "" ],
					"patching_rect" : [ 547.0, 786.0, 56.0, 20.0 ],
					"fontsize" : 12.0,
					"id" : "obj-70",
					"numinlets" : 1,
					"fontname" : "Arial",
					"numoutlets" : 2
				}

			}
, 			{
				"box" : 				{
					"maxclass" : "comment",
					"text" : "when the gate closes, the previous peak gets reset to 0, as does the \"trigger\"",
					"linecount" : 6,
					"patching_rect" : [ 380.0, 819.0, 94.0, 89.0 ],
					"fontsize" : 12.0,
					"id" : "obj-37",
					"numinlets" : 1,
					"fontname" : "Arial",
					"numoutlets" : 0
				}

			}
, 			{
				"box" : 				{
					"maxclass" : "comment",
					"text" : "above the threshold, hit detection becomes active, gate opens",
					"linecount" : 3,
					"patching_rect" : [ 120.0, 687.0, 129.0, 48.0 ],
					"fontsize" : 12.0,
					"id" : "obj-35",
					"numinlets" : 1,
					"fontname" : "Arial",
					"numoutlets" : 0
				}

			}
, 			{
				"box" : 				{
					"maxclass" : "comment",
					"text" : "below the threshold, any movement is treated as noise; gate to further processing is closed",
					"linecount" : 2,
					"patching_rect" : [ 168.0, 458.0, 314.0, 34.0 ],
					"fontsize" : 12.0,
					"id" : "obj-33",
					"numinlets" : 1,
					"fontname" : "Arial",
					"numoutlets" : 0
				}

			}
, 			{
				"box" : 				{
					"maxclass" : "newobj",
					"text" : "loadmess 0.03",
					"outlettype" : [ "" ],
					"patching_rect" : [ 617.0, 95.0, 89.0, 20.0 ],
					"fontsize" : 12.0,
					"id" : "obj-29",
					"numinlets" : 1,
					"fontname" : "Arial",
					"numoutlets" : 1
				}

			}
, 			{
				"box" : 				{
					"maxclass" : "newobj",
					"text" : "loadmess 0.1",
					"outlettype" : [ "" ],
					"patching_rect" : [ 596.0, 65.0, 82.0, 20.0 ],
					"fontsize" : 12.0,
					"id" : "obj-28",
					"numinlets" : 1,
					"fontname" : "Arial",
					"numoutlets" : 1
				}

			}
, 			{
				"box" : 				{
					"maxclass" : "flonum",
					"outlettype" : [ "float", "bang" ],
					"patching_rect" : [ 524.0, 94.0, 50.0, 20.0 ],
					"fontsize" : 12.0,
					"id" : "obj-27",
					"numinlets" : 1,
					"fontname" : "Arial",
					"numoutlets" : 2
				}

			}
, 			{
				"box" : 				{
					"maxclass" : "comment",
					"text" : "set threshold",
					"patching_rect" : [ 524.0, 28.0, 150.0, 20.0 ],
					"fontsize" : 12.0,
					"id" : "obj-25",
					"numinlets" : 1,
					"fontname" : "Arial",
					"numoutlets" : 0
				}

			}
, 			{
				"box" : 				{
					"maxclass" : "inlet",
					"outlettype" : [ "" ],
					"patching_rect" : [ 524.0, 49.0, 25.0, 25.0 ],
					"id" : "obj-19",
					"numinlets" : 0,
					"numoutlets" : 1,
					"comment" : "Threshold (float value, default 0.02)"
				}

			}
, 			{
				"box" : 				{
					"maxclass" : "message",
					"text" : "set $1",
					"outlettype" : [ "" ],
					"patching_rect" : [ 258.0, 1057.0, 43.0, 18.0 ],
					"fontsize" : 12.0,
					"id" : "obj-12",
					"numinlets" : 2,
					"fontname" : "Arial",
					"numoutlets" : 1
				}

			}
, 			{
				"box" : 				{
					"maxclass" : "comment",
					"text" : "active",
					"patching_rect" : [ 177.0, 664.0, 47.0, 20.0 ],
					"fontsize" : 12.0,
					"id" : "obj-107",
					"numinlets" : 1,
					"fontname" : "Arial",
					"numoutlets" : 0
				}

			}
, 			{
				"box" : 				{
					"maxclass" : "comment",
					"text" : "intensity",
					"patching_rect" : [ 312.0, 1186.0, 60.0, 20.0 ],
					"fontsize" : 12.0,
					"id" : "obj-20",
					"numinlets" : 1,
					"fontname" : "Arial",
					"numoutlets" : 0
				}

			}
, 			{
				"box" : 				{
					"maxclass" : "newobj",
					"text" : "+ 0.1",
					"outlettype" : [ "float" ],
					"patching_rect" : [ 258.0, 1162.0, 38.0, 20.0 ],
					"fontsize" : 12.0,
					"id" : "obj-40",
					"numinlets" : 2,
					"fontname" : "Arial",
					"numoutlets" : 1
				}

			}
, 			{
				"box" : 				{
					"maxclass" : "newobj",
					"text" : "* 4.",
					"outlettype" : [ "float" ],
					"patching_rect" : [ 258.0, 1137.0, 32.5, 20.0 ],
					"fontsize" : 12.0,
					"id" : "obj-72",
					"numinlets" : 2,
					"fontname" : "Arial",
					"numoutlets" : 1
				}

			}
, 			{
				"box" : 				{
					"maxclass" : "flonum",
					"outlettype" : [ "float", "bang" ],
					"patching_rect" : [ 258.0, 1110.0, 50.0, 20.0 ],
					"fontsize" : 12.0,
					"id" : "obj-103",
					"numinlets" : 1,
					"fontname" : "Arial",
					"numoutlets" : 2
				}

			}
, 			{
				"box" : 				{
					"maxclass" : "newobj",
					"text" : "peak 0.",
					"outlettype" : [ "float", "int", "int" ],
					"patching_rect" : [ 258.0, 1032.0, 50.0, 20.0 ],
					"fontsize" : 12.0,
					"id" : "obj-106",
					"numinlets" : 2,
					"fontname" : "Arial",
					"numoutlets" : 3
				}

			}
, 			{
				"box" : 				{
					"maxclass" : "newobj",
					"text" : "* 10.",
					"outlettype" : [ "float" ],
					"patching_rect" : [ 152.0, 307.0, 35.0, 20.0 ],
					"fontsize" : 12.0,
					"id" : "obj-76",
					"numinlets" : 2,
					"fontname" : "Arial",
					"numoutlets" : 1
				}

			}
, 			{
				"box" : 				{
					"maxclass" : "newobj",
					"text" : "pipe 5",
					"outlettype" : [ "" ],
					"patching_rect" : [ 328.0, 880.0, 43.0, 20.0 ],
					"fontsize" : 12.0,
					"id" : "obj-44",
					"numinlets" : 2,
					"fontname" : "Arial",
					"numoutlets" : 1
				}

			}
, 			{
				"box" : 				{
					"maxclass" : "newobj",
					"text" : "change",
					"outlettype" : [ "", "int", "int" ],
					"patching_rect" : [ 328.0, 855.0, 50.0, 20.0 ],
					"fontsize" : 12.0,
					"id" : "obj-49",
					"numinlets" : 1,
					"fontname" : "Arial",
					"numoutlets" : 3
				}

			}
, 			{
				"box" : 				{
					"maxclass" : "message",
					"text" : "0.",
					"outlettype" : [ "" ],
					"patching_rect" : [ 328.0, 909.0, 32.5, 18.0 ],
					"fontsize" : 12.0,
					"id" : "obj-50",
					"numinlets" : 2,
					"fontname" : "Arial",
					"numoutlets" : 1
				}

			}
, 			{
				"box" : 				{
					"maxclass" : "newobj",
					"text" : "gate",
					"outlettype" : [ "" ],
					"patching_rect" : [ 258.0, 687.0, 34.0, 20.0 ],
					"fontsize" : 12.0,
					"id" : "obj-51",
					"numinlets" : 2,
					"fontname" : "Arial",
					"numoutlets" : 1
				}

			}
, 			{
				"box" : 				{
					"maxclass" : "toggle",
					"outlettype" : [ "int" ],
					"patching_rect" : [ 226.0, 664.0, 20.0, 20.0 ],
					"id" : "obj-52",
					"numinlets" : 1,
					"numoutlets" : 1
				}

			}
, 			{
				"box" : 				{
					"maxclass" : "newobj",
					"text" : "!= 1",
					"outlettype" : [ "int" ],
					"patching_rect" : [ 226.0, 637.0, 32.5, 20.0 ],
					"fontsize" : 12.0,
					"id" : "obj-53",
					"numinlets" : 2,
					"fontname" : "Arial",
					"numoutlets" : 1
				}

			}
, 			{
				"box" : 				{
					"maxclass" : "comment",
					"text" : "resting",
					"patching_rect" : [ 210.0, 573.0, 60.0, 20.0 ],
					"fontsize" : 12.0,
					"id" : "obj-54",
					"numinlets" : 1,
					"fontname" : "Arial",
					"numoutlets" : 0
				}

			}
, 			{
				"box" : 				{
					"maxclass" : "toggle",
					"outlettype" : [ "int" ],
					"patching_rect" : [ 186.0, 572.0, 20.0, 20.0 ],
					"id" : "obj-55",
					"numinlets" : 1,
					"numoutlets" : 1
				}

			}
, 			{
				"box" : 				{
					"maxclass" : "newobj",
					"text" : "&&",
					"outlettype" : [ "int" ],
					"patching_rect" : [ 186.0, 545.0, 32.5, 20.0 ],
					"fontsize" : 12.0,
					"id" : "obj-56",
					"numinlets" : 2,
					"fontname" : "Arial",
					"numoutlets" : 1
				}

			}
, 			{
				"box" : 				{
					"maxclass" : "newobj",
					"text" : "< 0.02",
					"outlettype" : [ "int" ],
					"patching_rect" : [ 204.0, 520.0, 44.0, 20.0 ],
					"fontsize" : 12.0,
					"id" : "obj-57",
					"numinlets" : 2,
					"fontname" : "Arial",
					"numoutlets" : 1
				}

			}
, 			{
				"box" : 				{
					"maxclass" : "newobj",
					"text" : "< 0.02",
					"outlettype" : [ "int" ],
					"patching_rect" : [ 152.0, 520.0, 44.0, 20.0 ],
					"fontsize" : 12.0,
					"id" : "obj-58",
					"numinlets" : 2,
					"fontname" : "Arial",
					"numoutlets" : 1
				}

			}
, 			{
				"box" : 				{
					"maxclass" : "newobj",
					"text" : "unpack 0. 0. 0. 0.",
					"outlettype" : [ "float", "float", "float", "float" ],
					"patching_rect" : [ 152.0, 155.0, 103.0, 20.0 ],
					"fontsize" : 12.0,
					"id" : "obj-23",
					"numinlets" : 1,
					"fontname" : "Arial",
					"numoutlets" : 4
				}

			}
, 			{
				"box" : 				{
					"maxclass" : "newobj",
					"text" : "delta",
					"outlettype" : [ "float" ],
					"patching_rect" : [ 152.0, 258.0, 37.0, 20.0 ],
					"fontsize" : 12.0,
					"id" : "obj-21",
					"numinlets" : 2,
					"fontname" : "Arial",
					"numoutlets" : 1
				}

			}
, 			{
				"box" : 				{
					"maxclass" : "newobj",
					"text" : "if $f1 > 0. then $f1 else 0.",
					"outlettype" : [ "" ],
					"patching_rect" : [ 152.0, 283.0, 146.0, 20.0 ],
					"fontsize" : 12.0,
					"id" : "obj-46",
					"numinlets" : 1,
					"fontname" : "Arial",
					"numoutlets" : 1
				}

			}
, 			{
				"box" : 				{
					"maxclass" : "multislider",
					"peakcolor" : [ 0.498039, 0.498039, 0.498039, 1.0 ],
					"outlettype" : [ "", "" ],
					"compatibility" : 1,
					"candicane3" : [ 0.290196, 0.411765, 0.713726, 1.0 ],
					"setminmax" : [ -0.2, 0.2 ],
					"candicane8" : [ 0.027451, 0.447059, 0.501961, 1.0 ],
					"patching_rect" : [ 152.0, 328.0, 262.0, 126.0 ],
					"candicane2" : [ 0.145098, 0.203922, 0.356863, 1.0 ],
					"id" : "obj-39",
					"candicane7" : [ 0.878431, 0.243137, 0.145098, 1.0 ],
					"orientation" : 0,
					"setstyle" : 5,
					"candicane6" : [ 0.733333, 0.035294, 0.788235, 1.0 ],
					"numinlets" : 1,
					"border_right" : 0,
					"candicane5" : [ 0.584314, 0.827451, 0.431373, 1.0 ],
					"numoutlets" : 2,
					"candicane4" : [ 0.439216, 0.619608, 0.070588, 1.0 ],
					"contdata" : 1,
					"drawpeaks" : 1
				}

			}
, 			{
				"box" : 				{
					"maxclass" : "flonum",
					"outlettype" : [ "float", "bang" ],
					"patching_rect" : [ 152.0, 185.0, 50.0, 20.0 ],
					"fontsize" : 12.0,
					"id" : "obj-36",
					"numinlets" : 1,
					"fontname" : "Arial",
					"numoutlets" : 2
				}

			}
, 			{
				"box" : 				{
					"maxclass" : "flonum",
					"outlettype" : [ "float", "bang" ],
					"patching_rect" : [ 205.0, 209.0, 40.0, 20.0 ],
					"fontsize" : 12.0,
					"id" : "obj-22",
					"htextcolor" : [ 0.870588, 0.870588, 0.870588, 1.0 ],
					"numinlets" : 1,
					"bgcolor" : [ 0.866667, 0.866667, 0.866667, 1.0 ],
					"fontname" : "Arial",
					"numoutlets" : 2,
					"triscale" : 0.9
				}

			}
, 			{
				"box" : 				{
					"maxclass" : "newobj",
					"text" : "onepole 0.1",
					"outlettype" : [ "float" ],
					"patching_rect" : [ 152.0, 234.0, 73.0, 20.0 ],
					"fontsize" : 12.0,
					"id" : "obj-4",
					"numinlets" : 2,
					"fontname" : "Arial",
					"numoutlets" : 1
				}

			}
, 			{
				"box" : 				{
					"maxclass" : "comment",
					"text" : "hit event &\nintensity (float, 0-1)",
					"linecount" : 4,
					"patching_rect" : [ 258.0, 1329.0, 63.0, 62.0 ],
					"fontsize" : 12.0,
					"id" : "obj-8",
					"numinlets" : 1,
					"fontname" : "Arial",
					"numoutlets" : 0
				}

			}
, 			{
				"box" : 				{
					"maxclass" : "outlet",
					"patching_rect" : [ 258.0, 1294.0, 25.0, 25.0 ],
					"id" : "obj-9",
					"numinlets" : 1,
					"numoutlets" : 0,
					"comment" : "float (0. to 1.) giving intensity of hit"
				}

			}
, 			{
				"box" : 				{
					"maxclass" : "comment",
					"text" : "set wii number",
					"patching_rect" : [ 826.0, 23.0, 130.0, 20.0 ],
					"fontsize" : 12.0,
					"id" : "obj-6",
					"numinlets" : 1,
					"fontname" : "Arial",
					"numoutlets" : 0
				}

			}
, 			{
				"box" : 				{
					"maxclass" : "inlet",
					"outlettype" : [ "" ],
					"patching_rect" : [ 827.0, 49.0, 25.0, 25.0 ],
					"id" : "obj-7",
					"numinlets" : 0,
					"numoutlets" : 1,
					"comment" : "Wiimote Number"
				}

			}
, 			{
				"box" : 				{
					"maxclass" : "newobj",
					"text" : "OSC-route /accel/pry",
					"outlettype" : [ "", "" ],
					"patching_rect" : [ 152.0, 129.0, 123.0, 20.0 ],
					"fontsize" : 12.0,
					"id" : "obj-3",
					"numinlets" : 1,
					"fontname" : "Arial",
					"numoutlets" : 2
				}

			}
, 			{
				"box" : 				{
					"maxclass" : "newobj",
					"text" : "GL_WiiReceiver",
					"outlettype" : [ "" ],
					"patching_rect" : [ 152.0, 69.0, 97.0, 20.0 ],
					"fontsize" : 12.0,
					"id" : "obj-1",
					"numinlets" : 1,
					"fontname" : "Arial",
					"numoutlets" : 1
				}

			}
 ],
		"lines" : [ 			{
				"patchline" : 				{
					"source" : [ "obj-26", 0 ],
					"destination" : [ "obj-18", 0 ],
					"hidden" : 0,
					"midpoints" : [  ]
				}

			}
, 			{
				"patchline" : 				{
					"source" : [ "obj-17", 0 ],
					"destination" : [ "obj-14", 0 ],
					"hidden" : 0,
					"midpoints" : [  ]
				}

			}
, 			{
				"patchline" : 				{
					"source" : [ "obj-28", 0 ],
					"destination" : [ "obj-27", 0 ],
					"hidden" : 0,
					"midpoints" : [  ]
				}

			}
, 			{
				"patchline" : 				{
					"source" : [ "obj-81", 0 ],
					"destination" : [ "obj-41", 1 ],
					"hidden" : 0,
					"midpoints" : [  ]
				}

			}
, 			{
				"patchline" : 				{
					"source" : [ "obj-81", 0 ],
					"destination" : [ "obj-123", 1 ],
					"hidden" : 0,
					"midpoints" : [  ]
				}

			}
, 			{
				"patchline" : 				{
					"source" : [ "obj-76", 0 ],
					"destination" : [ "obj-39", 0 ],
					"hidden" : 0,
					"midpoints" : [  ]
				}

			}
, 			{
				"patchline" : 				{
					"source" : [ "obj-74", 0 ],
					"destination" : [ "obj-103", 0 ],
					"hidden" : 0,
					"midpoints" : [ 603.5, 1097.5, 267.5, 1097.5 ]
				}

			}
, 			{
				"patchline" : 				{
					"source" : [ "obj-72", 0 ],
					"destination" : [ "obj-40", 0 ],
					"hidden" : 0,
					"midpoints" : [  ]
				}

			}
, 			{
				"patchline" : 				{
					"source" : [ "obj-71", 1 ],
					"destination" : [ "obj-74", 0 ],
					"hidden" : 0,
					"midpoints" : [  ]
				}

			}
, 			{
				"patchline" : 				{
					"source" : [ "obj-70", 1 ],
					"destination" : [ "obj-81", 0 ],
					"hidden" : 0,
					"midpoints" : [  ]
				}

			}
, 			{
				"patchline" : 				{
					"source" : [ "obj-70", 0 ],
					"destination" : [ "obj-43", 0 ],
					"hidden" : 0,
					"midpoints" : [  ]
				}

			}
, 			{
				"patchline" : 				{
					"source" : [ "obj-7", 0 ],
					"destination" : [ "obj-1", 0 ],
					"hidden" : 0,
					"midpoints" : [ 836.5, 75.0, 690.0, 75.0, 690.0, 15.0, 161.5, 15.0 ]
				}

			}
, 			{
				"patchline" : 				{
					"source" : [ "obj-69", 2 ],
					"destination" : [ "obj-65", 0 ],
					"hidden" : 0,
					"midpoints" : [  ]
				}

			}
, 			{
				"patchline" : 				{
					"source" : [ "obj-65", 0 ],
					"destination" : [ "obj-71", 0 ],
					"hidden" : 0,
					"midpoints" : [  ]
				}

			}
, 			{
				"patchline" : 				{
					"source" : [ "obj-58", 0 ],
					"destination" : [ "obj-56", 0 ],
					"hidden" : 0,
					"midpoints" : [  ]
				}

			}
, 			{
				"patchline" : 				{
					"source" : [ "obj-57", 0 ],
					"destination" : [ "obj-56", 1 ],
					"hidden" : 0,
					"midpoints" : [  ]
				}

			}
, 			{
				"patchline" : 				{
					"source" : [ "obj-56", 0 ],
					"destination" : [ "obj-55", 0 ],
					"hidden" : 0,
					"midpoints" : [  ]
				}

			}
, 			{
				"patchline" : 				{
					"source" : [ "obj-55", 0 ],
					"destination" : [ "obj-53", 0 ],
					"hidden" : 0,
					"midpoints" : [ 195.5, 624.0, 235.5, 624.0 ]
				}

			}
, 			{
				"patchline" : 				{
					"source" : [ "obj-55", 0 ],
					"destination" : [ "obj-49", 0 ],
					"hidden" : 0,
					"midpoints" : [ 195.5, 624.0, 337.5, 624.0 ]
				}

			}
, 			{
				"patchline" : 				{
					"source" : [ "obj-53", 0 ],
					"destination" : [ "obj-52", 0 ],
					"hidden" : 0,
					"midpoints" : [  ]
				}

			}
, 			{
				"patchline" : 				{
					"source" : [ "obj-52", 0 ],
					"destination" : [ "obj-51", 0 ],
					"hidden" : 0,
					"midpoints" : [  ]
				}

			}
, 			{
				"patchline" : 				{
					"source" : [ "obj-51", 0 ],
					"destination" : [ "obj-70", 0 ],
					"hidden" : 0,
					"midpoints" : [ 267.5, 771.0, 556.5, 771.0 ]
				}

			}
, 			{
				"patchline" : 				{
					"source" : [ "obj-51", 0 ],
					"destination" : [ "obj-106", 0 ],
					"hidden" : 0,
					"midpoints" : [  ]
				}

			}
, 			{
				"patchline" : 				{
					"source" : [ "obj-50", 0 ],
					"destination" : [ "obj-65", 0 ],
					"hidden" : 0,
					"midpoints" : [  ]
				}

			}
, 			{
				"patchline" : 				{
					"source" : [ "obj-50", 0 ],
					"destination" : [ "obj-106", 1 ],
					"hidden" : 0,
					"midpoints" : [ 337.5, 1017.0, 298.5, 1017.0 ]
				}

			}
, 			{
				"patchline" : 				{
					"source" : [ "obj-49", 1 ],
					"destination" : [ "obj-44", 0 ],
					"hidden" : 0,
					"midpoints" : [  ]
				}

			}
, 			{
				"patchline" : 				{
					"source" : [ "obj-46", 0 ],
					"destination" : [ "obj-76", 0 ],
					"hidden" : 0,
					"midpoints" : [  ]
				}

			}
, 			{
				"patchline" : 				{
					"source" : [ "obj-44", 0 ],
					"destination" : [ "obj-50", 0 ],
					"hidden" : 0,
					"midpoints" : [  ]
				}

			}
, 			{
				"patchline" : 				{
					"source" : [ "obj-43", 0 ],
					"destination" : [ "obj-41", 0 ],
					"hidden" : 0,
					"midpoints" : [  ]
				}

			}
, 			{
				"patchline" : 				{
					"source" : [ "obj-43", 0 ],
					"destination" : [ "obj-123", 0 ],
					"hidden" : 0,
					"midpoints" : [  ]
				}

			}
, 			{
				"patchline" : 				{
					"source" : [ "obj-41", 0 ],
					"destination" : [ "obj-38", 0 ],
					"hidden" : 0,
					"midpoints" : [  ]
				}

			}
, 			{
				"patchline" : 				{
					"source" : [ "obj-40", 0 ],
					"destination" : [ "obj-5", 0 ],
					"hidden" : 0,
					"midpoints" : [  ]
				}

			}
, 			{
				"patchline" : 				{
					"source" : [ "obj-4", 0 ],
					"destination" : [ "obj-21", 0 ],
					"hidden" : 0,
					"midpoints" : [  ]
				}

			}
, 			{
				"patchline" : 				{
					"source" : [ "obj-39", 0 ],
					"destination" : [ "obj-58", 0 ],
					"hidden" : 0,
					"midpoints" : [  ]
				}

			}
, 			{
				"patchline" : 				{
					"source" : [ "obj-39", 0 ],
					"destination" : [ "obj-57", 0 ],
					"hidden" : 0,
					"midpoints" : [ 161.5, 494.0, 213.5, 494.0 ]
				}

			}
, 			{
				"patchline" : 				{
					"source" : [ "obj-39", 0 ],
					"destination" : [ "obj-51", 1 ],
					"hidden" : 0,
					"midpoints" : [ 161.5, 494.0, 282.0, 494.0, 282.0, 672.0, 282.5, 672.0 ]
				}

			}
, 			{
				"patchline" : 				{
					"source" : [ "obj-38", 0 ],
					"destination" : [ "obj-69", 0 ],
					"hidden" : 0,
					"midpoints" : [  ]
				}

			}
, 			{
				"patchline" : 				{
					"source" : [ "obj-36", 0 ],
					"destination" : [ "obj-4", 0 ],
					"hidden" : 0,
					"midpoints" : [  ]
				}

			}
, 			{
				"patchline" : 				{
					"source" : [ "obj-3", 0 ],
					"destination" : [ "obj-23", 0 ],
					"hidden" : 0,
					"midpoints" : [  ]
				}

			}
, 			{
				"patchline" : 				{
					"source" : [ "obj-27", 0 ],
					"destination" : [ "obj-58", 1 ],
					"hidden" : 0,
					"midpoints" : [ 533.5, 170.0, 533.0, 170.0, 533.0, 507.0, 186.5, 507.0 ]
				}

			}
, 			{
				"patchline" : 				{
					"source" : [ "obj-27", 0 ],
					"destination" : [ "obj-57", 1 ],
					"hidden" : 0,
					"midpoints" : [ 533.5, 170.0, 533.0, 170.0, 533.0, 507.0, 238.5, 507.0 ]
				}

			}
, 			{
				"patchline" : 				{
					"source" : [ "obj-23", 3 ],
					"destination" : [ "obj-36", 0 ],
					"hidden" : 0,
					"midpoints" : [  ]
				}

			}
, 			{
				"patchline" : 				{
					"source" : [ "obj-22", 0 ],
					"destination" : [ "obj-4", 1 ],
					"hidden" : 0,
					"midpoints" : [  ]
				}

			}
, 			{
				"patchline" : 				{
					"source" : [ "obj-21", 0 ],
					"destination" : [ "obj-46", 0 ],
					"hidden" : 0,
					"midpoints" : [  ]
				}

			}
, 			{
				"patchline" : 				{
					"source" : [ "obj-19", 0 ],
					"destination" : [ "obj-27", 0 ],
					"hidden" : 0,
					"midpoints" : [  ]
				}

			}
, 			{
				"patchline" : 				{
					"source" : [ "obj-123", 0 ],
					"destination" : [ "obj-141", 0 ],
					"hidden" : 0,
					"midpoints" : [  ]
				}

			}
, 			{
				"patchline" : 				{
					"source" : [ "obj-12", 0 ],
					"destination" : [ "obj-103", 0 ],
					"hidden" : 0,
					"midpoints" : [  ]
				}

			}
, 			{
				"patchline" : 				{
					"source" : [ "obj-106", 0 ],
					"destination" : [ "obj-12", 0 ],
					"hidden" : 0,
					"midpoints" : [  ]
				}

			}
, 			{
				"patchline" : 				{
					"source" : [ "obj-103", 0 ],
					"destination" : [ "obj-72", 0 ],
					"hidden" : 0,
					"midpoints" : [  ]
				}

			}
, 			{
				"patchline" : 				{
					"source" : [ "obj-13", 0 ],
					"destination" : [ "obj-32", 0 ],
					"hidden" : 0,
					"midpoints" : [  ]
				}

			}
, 			{
				"patchline" : 				{
					"source" : [ "obj-32", 0 ],
					"destination" : [ "obj-11", 0 ],
					"hidden" : 0,
					"midpoints" : [  ]
				}

			}
, 			{
				"patchline" : 				{
					"source" : [ "obj-1", 0 ],
					"destination" : [ "obj-11", 1 ],
					"hidden" : 0,
					"midpoints" : [ 161.5, 93.0, 63.0, 93.0, 63.0, 93.0, 53.5, 93.0 ]
				}

			}
, 			{
				"patchline" : 				{
					"source" : [ "obj-11", 0 ],
					"destination" : [ "obj-3", 0 ],
					"hidden" : 0,
					"midpoints" : [ 38.5, 126.0, 161.5, 126.0 ]
				}

			}
, 			{
				"patchline" : 				{
					"source" : [ "obj-14", 0 ],
					"destination" : [ "obj-15", 0 ],
					"hidden" : 0,
					"midpoints" : [  ]
				}

			}
, 			{
				"patchline" : 				{
					"source" : [ "obj-5", 0 ],
					"destination" : [ "obj-15", 1 ],
					"hidden" : 0,
					"midpoints" : [  ]
				}

			}
, 			{
				"patchline" : 				{
					"source" : [ "obj-15", 0 ],
					"destination" : [ "obj-9", 0 ],
					"hidden" : 0,
					"midpoints" : [  ]
				}

			}
, 			{
				"patchline" : 				{
					"source" : [ "obj-10", 0 ],
					"destination" : [ "obj-32", 0 ],
					"hidden" : 0,
					"midpoints" : [  ]
				}

			}
, 			{
				"patchline" : 				{
					"source" : [ "obj-18", 0 ],
					"destination" : [ "obj-17", 0 ],
					"hidden" : 0,
					"midpoints" : [  ]
				}

			}
, 			{
				"patchline" : 				{
					"source" : [ "obj-5", 0 ],
					"destination" : [ "obj-26", 0 ],
					"hidden" : 0,
					"midpoints" : [  ]
				}

			}
 ]
	}

}
