{
	"patcher" : 	{
		"fileversion" : 1,
		"rect" : [ 25.0, 69.0, 640.0, 480.0 ],
		"bglocked" : 0,
		"defrect" : [ 25.0, 69.0, 640.0, 480.0 ],
		"openrect" : [ 0.0, 0.0, 0.0, 0.0 ],
		"openinpresentation" : 0,
		"default_fontsize" : 12.0,
		"default_fontface" : 0,
		"default_fontname" : "Arial",
		"gridonopen" : 0,
		"gridsize" : [ 15.0, 15.0 ],
		"gridsnaponopen" : 0,
		"toolbarvisible" : 1,
		"boxanimatetime" : 200,
		"imprint" : 0,
		"enablehscroll" : 1,
		"enablevscroll" : 1,
		"devicewidth" : 0.0,
		"boxes" : [ 			{
				"box" : 				{
					"maxclass" : "newobj",
					"text" : "!- 1.",
					"patching_rect" : [ 107.0, 410.0, 32.5, 20.0 ],
					"outlettype" : [ "float" ],
					"fontname" : "Arial",
					"id" : "obj-4",
					"fontsize" : 12.0,
					"numinlets" : 2,
					"numoutlets" : 1
				}

			}
, 			{
				"box" : 				{
					"maxclass" : "outlet",
					"patching_rect" : [ 53.0, 440.0, 25.0, 25.0 ],
					"id" : "obj-3",
					"numinlets" : 1,
					"numoutlets" : 0,
					"comment" : "(float) x  (0. to 1.)"
				}

			}
, 			{
				"box" : 				{
					"maxclass" : "outlet",
					"patching_rect" : [ 107.0, 440.0, 25.0, 25.0 ],
					"id" : "obj-2",
					"numinlets" : 1,
					"numoutlets" : 0,
					"comment" : "(float) y  (0. to 1.)"
				}

			}
, 			{
				"box" : 				{
					"maxclass" : "message",
					"text" : "$1 50",
					"patching_rect" : [ 80.0, 44.0, 41.0, 18.0 ],
					"outlettype" : [ "" ],
					"fontname" : "Arial",
					"id" : "obj-89",
					"fontsize" : 12.0,
					"numinlets" : 2,
					"numoutlets" : 1
				}

			}
, 			{
				"box" : 				{
					"maxclass" : "newobj",
					"text" : "line 0.",
					"patching_rect" : [ 80.0, 65.0, 46.0, 20.0 ],
					"outlettype" : [ "", "" ],
					"fontname" : "Arial",
					"id" : "obj-90",
					"fontsize" : 12.0,
					"numinlets" : 3,
					"numoutlets" : 2
				}

			}
, 			{
				"box" : 				{
					"maxclass" : "message",
					"text" : "$1 50",
					"patching_rect" : [ 26.0, 44.0, 41.0, 18.0 ],
					"outlettype" : [ "" ],
					"fontname" : "Arial",
					"id" : "obj-88",
					"fontsize" : 12.0,
					"numinlets" : 2,
					"numoutlets" : 1
				}

			}
, 			{
				"box" : 				{
					"maxclass" : "newobj",
					"text" : "line 0.",
					"patching_rect" : [ 26.0, 65.0, 46.0, 20.0 ],
					"outlettype" : [ "", "" ],
					"fontname" : "Arial",
					"id" : "obj-86",
					"fontsize" : 12.0,
					"numinlets" : 3,
					"numoutlets" : 2
				}

			}
, 			{
				"box" : 				{
					"maxclass" : "newobj",
					"text" : "/ 4.",
					"patching_rect" : [ 80.0, 136.0, 32.5, 20.0 ],
					"outlettype" : [ "float" ],
					"fontname" : "Arial",
					"id" : "obj-85",
					"fontsize" : 12.0,
					"numinlets" : 2,
					"numoutlets" : 1
				}

			}
, 			{
				"box" : 				{
					"maxclass" : "newobj",
					"text" : "/ 4.",
					"patching_rect" : [ 26.0, 137.0, 32.5, 20.0 ],
					"outlettype" : [ "float" ],
					"fontname" : "Arial",
					"id" : "obj-84",
					"fontsize" : 12.0,
					"numinlets" : 2,
					"numoutlets" : 1
				}

			}
, 			{
				"box" : 				{
					"maxclass" : "newobj",
					"text" : "!- 0.",
					"patching_rect" : [ 26.0, 187.0, 32.5, 20.0 ],
					"outlettype" : [ "float" ],
					"fontname" : "Arial",
					"id" : "obj-83",
					"fontsize" : 12.0,
					"numinlets" : 2,
					"numoutlets" : 1
				}

			}
, 			{
				"box" : 				{
					"maxclass" : "newobj",
					"text" : "/ 8.",
					"patching_rect" : [ 107.0, 332.0, 32.5, 20.0 ],
					"outlettype" : [ "float" ],
					"fontname" : "Arial",
					"id" : "obj-82",
					"fontsize" : 12.0,
					"numinlets" : 2,
					"numoutlets" : 1
				}

			}
, 			{
				"box" : 				{
					"maxclass" : "newobj",
					"text" : "/ 8.",
					"patching_rect" : [ 53.0, 366.0, 32.5, 20.0 ],
					"outlettype" : [ "float" ],
					"fontname" : "Arial",
					"id" : "obj-81",
					"fontsize" : 12.0,
					"numinlets" : 2,
					"numoutlets" : 1
				}

			}
, 			{
				"box" : 				{
					"maxclass" : "newobj",
					"text" : "+ 0.",
					"patching_rect" : [ 80.0, 184.0, 32.5, 20.0 ],
					"outlettype" : [ "float" ],
					"fontname" : "Arial",
					"id" : "obj-79",
					"fontsize" : 12.0,
					"numinlets" : 2,
					"numoutlets" : 1
				}

			}
, 			{
				"box" : 				{
					"maxclass" : "slider",
					"patching_rect" : [ 107.0, 215.0, 20.0, 113.0 ],
					"outlettype" : [ "" ],
					"id" : "obj-80",
					"floatoutput" : 1,
					"size" : 8.0,
					"numinlets" : 1,
					"numoutlets" : 1
				}

			}
, 			{
				"box" : 				{
					"maxclass" : "newobj",
					"text" : "+ 0.",
					"patching_rect" : [ 26.0, 218.0, 32.5, 20.0 ],
					"outlettype" : [ "float" ],
					"fontname" : "Arial",
					"id" : "obj-78",
					"fontsize" : 12.0,
					"numinlets" : 2,
					"numoutlets" : 1
				}

			}
, 			{
				"box" : 				{
					"maxclass" : "flonum",
					"patching_rect" : [ 80.0, 159.0, 50.0, 20.0 ],
					"outlettype" : [ "float", "bang" ],
					"fontname" : "Arial",
					"id" : "obj-76",
					"fontsize" : 12.0,
					"numinlets" : 1,
					"numoutlets" : 2
				}

			}
, 			{
				"box" : 				{
					"maxclass" : "newobj",
					"text" : "- 0.5",
					"patching_rect" : [ 80.0, 112.0, 35.0, 20.0 ],
					"outlettype" : [ "float" ],
					"fontname" : "Arial",
					"id" : "obj-77",
					"fontsize" : 12.0,
					"numinlets" : 2,
					"numoutlets" : 1
				}

			}
, 			{
				"box" : 				{
					"maxclass" : "flonum",
					"patching_rect" : [ 26.0, 159.0, 50.0, 20.0 ],
					"outlettype" : [ "float", "bang" ],
					"fontname" : "Arial",
					"id" : "obj-75",
					"fontsize" : 12.0,
					"numinlets" : 1,
					"numoutlets" : 2
				}

			}
, 			{
				"box" : 				{
					"maxclass" : "newobj",
					"text" : "- 0.5",
					"patching_rect" : [ 26.0, 112.0, 35.0, 20.0 ],
					"outlettype" : [ "float" ],
					"fontname" : "Arial",
					"id" : "obj-74",
					"fontsize" : 12.0,
					"numinlets" : 2,
					"numoutlets" : 1
				}

			}
, 			{
				"box" : 				{
					"maxclass" : "flonum",
					"patching_rect" : [ 80.0, 89.0, 50.0, 20.0 ],
					"outlettype" : [ "float", "bang" ],
					"fontname" : "Arial",
					"id" : "obj-70",
					"fontsize" : 12.0,
					"numinlets" : 1,
					"numoutlets" : 2
				}

			}
, 			{
				"box" : 				{
					"maxclass" : "flonum",
					"patching_rect" : [ 26.0, 89.0, 50.0, 20.0 ],
					"outlettype" : [ "float", "bang" ],
					"fontname" : "Arial",
					"id" : "obj-71",
					"fontsize" : 12.0,
					"numinlets" : 1,
					"numoutlets" : 2
				}

			}
, 			{
				"box" : 				{
					"maxclass" : "newobj",
					"text" : "GL_WiiNunchuk",
					"patching_rect" : [ 26.0, 19.0, 154.0, 20.0 ],
					"outlettype" : [ "float", "float", "float", "float", "float", "float", "float", "", "", "float", "float" ],
					"fontname" : "Arial",
					"id" : "obj-72",
					"fontsize" : 12.0,
					"numinlets" : 1,
					"numoutlets" : 11
				}

			}
, 			{
				"box" : 				{
					"maxclass" : "slider",
					"patching_rect" : [ 53.0, 249.0, 20.0, 113.0 ],
					"outlettype" : [ "" ],
					"id" : "obj-65",
					"floatoutput" : 1,
					"size" : 8.0,
					"numinlets" : 1,
					"numoutlets" : 1
				}

			}
 ],
		"lines" : [ 			{
				"patchline" : 				{
					"source" : [ "obj-72", 0 ],
					"destination" : [ "obj-88", 0 ],
					"hidden" : 0,
					"midpoints" : [  ]
				}

			}
, 			{
				"patchline" : 				{
					"source" : [ "obj-72", 1 ],
					"destination" : [ "obj-89", 0 ],
					"hidden" : 0,
					"midpoints" : [  ]
				}

			}
, 			{
				"patchline" : 				{
					"source" : [ "obj-4", 0 ],
					"destination" : [ "obj-2", 0 ],
					"hidden" : 0,
					"midpoints" : [  ]
				}

			}
, 			{
				"patchline" : 				{
					"source" : [ "obj-81", 0 ],
					"destination" : [ "obj-4", 0 ],
					"hidden" : 0,
					"midpoints" : [  ]
				}

			}
, 			{
				"patchline" : 				{
					"source" : [ "obj-82", 0 ],
					"destination" : [ "obj-3", 0 ],
					"hidden" : 0,
					"midpoints" : [  ]
				}

			}
, 			{
				"patchline" : 				{
					"source" : [ "obj-77", 0 ],
					"destination" : [ "obj-85", 0 ],
					"hidden" : 0,
					"midpoints" : [  ]
				}

			}
, 			{
				"patchline" : 				{
					"source" : [ "obj-85", 0 ],
					"destination" : [ "obj-76", 0 ],
					"hidden" : 0,
					"midpoints" : [  ]
				}

			}
, 			{
				"patchline" : 				{
					"source" : [ "obj-74", 0 ],
					"destination" : [ "obj-84", 0 ],
					"hidden" : 0,
					"midpoints" : [  ]
				}

			}
, 			{
				"patchline" : 				{
					"source" : [ "obj-84", 0 ],
					"destination" : [ "obj-75", 0 ],
					"hidden" : 0,
					"midpoints" : [  ]
				}

			}
, 			{
				"patchline" : 				{
					"source" : [ "obj-86", 0 ],
					"destination" : [ "obj-71", 0 ],
					"hidden" : 0,
					"midpoints" : [  ]
				}

			}
, 			{
				"patchline" : 				{
					"source" : [ "obj-90", 0 ],
					"destination" : [ "obj-70", 0 ],
					"hidden" : 0,
					"midpoints" : [  ]
				}

			}
, 			{
				"patchline" : 				{
					"source" : [ "obj-89", 0 ],
					"destination" : [ "obj-90", 0 ],
					"hidden" : 0,
					"midpoints" : [  ]
				}

			}
, 			{
				"patchline" : 				{
					"source" : [ "obj-88", 0 ],
					"destination" : [ "obj-86", 0 ],
					"hidden" : 0,
					"midpoints" : [  ]
				}

			}
, 			{
				"patchline" : 				{
					"source" : [ "obj-83", 0 ],
					"destination" : [ "obj-78", 0 ],
					"hidden" : 0,
					"midpoints" : [  ]
				}

			}
, 			{
				"patchline" : 				{
					"source" : [ "obj-75", 0 ],
					"destination" : [ "obj-83", 0 ],
					"hidden" : 0,
					"midpoints" : [  ]
				}

			}
, 			{
				"patchline" : 				{
					"source" : [ "obj-80", 0 ],
					"destination" : [ "obj-82", 0 ],
					"hidden" : 0,
					"midpoints" : [  ]
				}

			}
, 			{
				"patchline" : 				{
					"source" : [ "obj-65", 0 ],
					"destination" : [ "obj-81", 0 ],
					"hidden" : 0,
					"midpoints" : [  ]
				}

			}
, 			{
				"patchline" : 				{
					"source" : [ "obj-76", 0 ],
					"destination" : [ "obj-79", 0 ],
					"hidden" : 0,
					"midpoints" : [  ]
				}

			}
, 			{
				"patchline" : 				{
					"source" : [ "obj-80", 0 ],
					"destination" : [ "obj-79", 1 ],
					"hidden" : 0,
					"midpoints" : [  ]
				}

			}
, 			{
				"patchline" : 				{
					"source" : [ "obj-79", 0 ],
					"destination" : [ "obj-80", 0 ],
					"hidden" : 0,
					"midpoints" : [  ]
				}

			}
, 			{
				"patchline" : 				{
					"source" : [ "obj-78", 0 ],
					"destination" : [ "obj-65", 0 ],
					"hidden" : 0,
					"midpoints" : [  ]
				}

			}
, 			{
				"patchline" : 				{
					"source" : [ "obj-65", 0 ],
					"destination" : [ "obj-78", 1 ],
					"hidden" : 0,
					"midpoints" : [  ]
				}

			}
, 			{
				"patchline" : 				{
					"source" : [ "obj-70", 0 ],
					"destination" : [ "obj-77", 0 ],
					"hidden" : 0,
					"midpoints" : [  ]
				}

			}
, 			{
				"patchline" : 				{
					"source" : [ "obj-71", 0 ],
					"destination" : [ "obj-74", 0 ],
					"hidden" : 0,
					"midpoints" : [  ]
				}

			}
 ]
	}

}
